<svg xmlns="http://www.w3.org/2000/svg" xmlns:xlink="http://www.w3.org/1999/xlink" xmlns:inkscape="http://www.inkscape.org/namespaces/inkscape" version="1.1" viewBox="50 151 500 301">
<symbol id="harkaviisikko" viewBox="50 151 500 301">
<g>
<path d="M116.629 161.602H141.652L232.262 433.84H205.863V481.07H380.676V433.773H350.301L441.535 161.891H471.363V114.301H346.105V162.152H368.727L291.523 369.836 214.668 162.328H237.832V114.168H116.648C116.605 129.977 116.629 145.789 116.629 161.602ZM116.629 161.602"/>
<path d="M117.324 163.25H142.348L232.957 435.488H206.555V482.719H381.367V435.422H350.996L442.23 163.539H472.059V115.949H346.801V163.801H369.418L292.215 380.535 215.359 163.977H238.523V115.816H117.34C117.301 131.625 117.324 147.438 117.324 163.25ZM117.324 163.25" fill="#5d9065"/>
<path stroke-width="6.238133" stroke-linecap="square" stroke-linejoin="round" fill="none" stroke="#000000" d="M117.324 163.25H142.348L232.957 435.488H206.555V482.719H381.367V435.422H350.996L442.23 163.539H472.059V115.949H346.801V163.801H369.418L292.215 380.535 215.359 163.977H238.523V115.816H117.34C117.301 131.625 117.324 147.438 117.324 163.25ZM117.324 163.25"/>
<path d="M195.02 143.762 178.434 205.664 189.418 224.688H221.867L212.32 260.316H171.824L142.418 209.383ZM195.02 143.762" fill="#e0913f"/>
<path stroke-width="6.089957" stroke-linecap="square" stroke-linejoin="round" fill="none" stroke="#000000" d="M195.02 143.762 178.434 205.664 189.418 224.688H221.867L212.32 260.316H171.824L142.418 209.383ZM195.02 143.762"/>
<path d="M389.438 143.516 406.238 206.211 395.504 224.805H363.137L372.648 260.301H412.422L441.801 209.418ZM389.438 143.516" fill="#e0913f"/>
<path stroke-width="6.089957" stroke-linecap="square" stroke-linejoin="round" fill="none" stroke="#000000" d="M389.438 143.516 406.238 206.211 395.504 224.805H363.137L372.648 260.301H412.422L441.801 209.418ZM389.438 143.516"/>
<path d="M207.73 274.105 200.77 300.09H177.555L162.477 273.973H207.77ZM207.73 274.105" fill="#e0913f"/>
<path stroke-width="6.089957" stroke-linecap="square" stroke-linejoin="round" fill="none" stroke="#000000" d="M207.73 274.105 200.77 300.09H177.555L162.477 273.973H207.77ZM207.73 274.105"/>
<path d="M376.711 274.188 383.711 300.305H407.391L422.609 273.949H376.645ZM376.711 274.188" fill="#e0913f"/>
<path stroke-width="6.089957" stroke-linecap="square" stroke-linejoin="round" fill="none" stroke="#000000" d="M376.711 274.188 383.711 300.305H407.391L422.609 273.949H376.645ZM376.711 274.188"/>
<path d="M235.371 224.379 222.027 274.168 271.598 323.734H259.184V370.855L237.809 383.195 252.914 422.969 265.246 410.637H319.684L332.176 423.133 347.281 383.59 325.496 371.016V323.449H311.227L362.844 274.996 349.18 223.992H235.457ZM235.371 224.379" fill="#e0913f"/>
<path stroke-width="6.089957" stroke-linecap="square" stroke-linejoin="round" fill="none" stroke="#000000" d="M235.371 224.379 222.027 274.168 271.598 323.734H259.184V370.855L237.809 383.195 252.914 422.969 265.246 410.637H319.684L332.176 423.133 347.281 383.59 325.496 371.016V323.449H311.227L362.844 274.996 349.18 223.992H235.457ZM235.371 224.379"/>
<path d="M269.332 423.293 256.312 436.312H328.375L315.195 423.133H269.48ZM269.332 423.293" fill="#e0913f"/>
<path stroke-width="6.089957" stroke-linecap="square" stroke-linejoin="round" fill="none" stroke="#000000" d="M269.332 423.293 256.312 436.312H328.375L315.195 423.133H269.48ZM269.332 423.293"/>
<path d="M367.414 293.074 376.379 326.105 338.465 371.91V319.047H352.453C357.305 310.316 362.66 301.852 367.414 293.074ZM367.414 293.074" fill="#e0913f"/>
<path stroke-width="5.208501" stroke-linecap="square" stroke-linejoin="round" fill="none" stroke="#000000" d="M367.414 293.074 376.379 326.105 338.465 371.91V319.047H352.453C357.305 310.316 362.66 301.852 367.414 293.074ZM367.414 293.074"/>
<path d="M217.219 290.617 232.609 319.105H245.871V372.211L208.766 322.293ZM217.219 290.617" fill="#e0913f"/>
<path stroke-width="5.208501" stroke-linecap="square" stroke-linejoin="round" fill="none" stroke="#000000" d="M217.219 290.617 232.609 319.105H245.871V372.211L208.766 322.293ZM217.219 290.617"/>
</g>
</symbol>
</svg>
