<svg xmlns="http://www.w3.org/2000/svg" xmlns:xlink="http://www.w3.org/1999/xlink" viewBox="82 151 433 301"><symbol id="hc-metsurit" viewBox="82 151 433 301"><defs><clipPath id="c"><path d="M180.578 174.691h87.934l29.636 108.797 29.614-108.711h87.703l19.519 72.836h-18.238l29.824 111.313h18.133l19.156 71.492H365.164v-17.566h15.348l-14.774-53.926h12.856l-24.383-90.992-23.945 90.859h12.851l-14.789 54.309h15.395v17.558h-90.735v-17.48h15.824l-14.566-54.364h13.297l-24.719-92.246-24.363 92.203h12.672l-14.813 54.008h15.418v18.031H111.73l19.149-71.46h18.152l29.582-110.399h-19.136l19.91-74.305Zm0 0"/></clipPath><pattern id="d" width="10000" height="10000" x="0" y="0" patternContentUnits="userSpaceOnUse" patternUnits="userSpaceOnUse"><use xlink:href="#b" transform="translate(78953.89 3808.306)scale(101.74327)"/></pattern><g id="b"><clipPath id="a"><path d="M-776.01-37.43h98.286v98.286h-98.287Z"/></clipPath><g fill="#800" fill-opacity=".5" clip-path="url(#a)"><path d="M-726.868-37.43h49.144v98.286h-49.144Z"/><path d="M-776.01 11.713h98.286v49.143h-98.287Z"/></g></g></defs><path fill="#015b3e" d="m283.887 151.383 14.035 53.988 13.875-53.398h120.508l31.859 118.894h-17.789l17.824 66.535h19.387l30.871 115.211H81.621l30.902-115.328h18.231l17.816-66.488h-18.508l32.004-119.445c40.606.066 81.215.027 121.821.027Zm0 0"/><path fill="none" stroke="#987341" stroke-linecap="square" stroke-width="6.552" d="m283.887 151.383 14.035 53.988 13.875-53.398h120.508l31.859 118.894h-17.789l17.824 66.535h19.387l30.871 115.211H81.621l30.902-115.328h18.231l17.816-66.488h-18.508l32.004-119.445c40.606.066 81.215.027 121.821.027Zm0 0"/><path fill="#b81835" d="M179.953 175.043h87.934l29.636 108.797 29.614-108.711h87.707l19.515 72.836h-18.238l29.828 111.316h18.129l19.156 71.492H364.539v-17.57h15.348l-14.774-53.926h12.856l-24.383-90.992-23.945 90.86h12.851l-14.789 54.308h15.395v17.563h-90.735v-17.485h15.825l-14.567-54.363h13.297l-24.719-92.246-24.363 92.207h12.672l-14.813 54.008h15.418v18.031H111.105l19.149-71.465h18.152l29.582-110.398h-19.136l19.91-74.301Zm0 0"/><g clip-path="url(#c)"><path fill="url(#d)" d="M90321.667 21577.565h37861.626v26062.963H90321.667z" transform="translate(-776.01 -37.43)scale(.00983)"/></g><path fill="none" stroke="#f1e9de" stroke-linecap="square" stroke-width="6.552" d="M180.578 174.691h87.934l29.636 108.797 29.614-108.711h87.703l19.519 72.836h-18.238l29.824 111.313h18.133l19.156 71.492H365.164v-17.566h15.348l-14.774-53.926h12.856l-24.383-90.992-23.945 90.859h12.851l-14.789 54.309h15.395v17.558h-90.735v-17.48h15.824l-14.566-54.364h13.297l-24.719-92.246-24.363 92.203h12.672l-14.813 54.008h15.418v18.031H111.73l19.149-71.46h18.152l29.582-110.399h-19.136l19.91-74.305Zm0 0"/></symbol></svg>