<svg xmlns="http://www.w3.org/2000/svg" viewBox="82 151 433 301"><symbol id="jaakarhut" viewBox="82 151 433 301"><path fill="#fff" d="M512.402 293.887c-.234-.246-.703-.735-.937-1.352-.235-.613-.235-1.359-.172-5.914.059-4.551.184-12.918-1.469-21.75-1.652-8.828-5.086-18.129-9.015-25.32-3.93-7.196-8.356-12.285-10.817-15.11-2.465-2.824-2.961-3.375-3.293-4.152-.332-.773-.5-1.769-1.707-8.871-1.203-7.102-3.449-20.305-8.25-31.68-4.801-11.379-12.16-20.926-21.16-28.91-9-7.98-19.644-14.398-31.617-19.094-11.977-4.699-25.281-7.672-36.043-8.296-10.762-.629-18.977 1.093-24.496 2.953-5.516 1.859-8.336 3.855-10.25 5.304-1.918 1.446-2.938 2.348-4.071 2.543-1.136.196-2.386-.312-5.714-1.371-3.325-1.055-8.727-2.66-14.203-3.07-5.481-.414-11.036.371-14.247.82-3.207.449-4.07.567-4.871.195-.804-.371-1.547-1.23-4.441-3.992-2.899-2.758-7.945-7.414-14.344-11.699s-14.144-8.199-22.363-10.898c-8.219-2.7-16.906-4.188-25.555-4.696-8.648-.507-17.254-.039-25.629 1.723-8.375 1.758-16.515 4.812-23.441 8.609-6.926 3.793-12.641 8.332-17.219 12.52s-8.023 8.023-10.058 10.723c-2.032 2.699-2.661 4.265-3.832 5.168-1.176.898-2.899 1.132-7.872 2.386-4.972 1.258-13.195 3.532-22.179 7.051-8.981 3.516-18.723 8.277-28.075 13.422-9.351 5.148-18.316 10.683-26.148 16.219-7.832 5.531-14.527 11.066-18.871 15.41s-6.336 7.5-7.5 10.957c-1.16 3.461-1.492 7.223-.902 15.144.589 7.918 2.105 19.993 4.191 33.118 2.09 13.121 4.75 27.285 8.664 42.351 3.91 15.067 9.078 31.031 15.731 46.996 6.652 15.969 14.793 31.934 22.519 45.278 7.723 13.347 15.039 24.074 22.457 33.644 7.422 9.566 14.945 17.981 23.246 26.113 8.305 8.137 17.379 15.996 26.844 23.633 9.461 7.637 19.312 15.051 31.461 22.371 12.148 7.321 26.594 14.547 40.508 20.586 13.914 6.035 27.297 10.891 39.347 14.84 12.055 3.953 22.778 7.008 30.446 8.766 7.672 1.761 12.289 2.23 14.746 2.476 2.461.246 2.765.27 2.804.078.043-.191-.179-.589-1.582-3.418-1.406-2.828-3.992-8.086-6.281-13.304-2.289-5.223-4.285-10.41-5.699-14.813-1.414-4.402-2.25-8.015-2.723-12.281-.476-4.266-.59-9.184.239-13.375.828-4.191 2.605-7.66 4.879-10.168 2.277-2.504 5.058-4.047 8.121-5.102 3.058-1.054 6.402-1.625 10.343-1.707 3.946-.078 8.489.329 12.563 1.672 4.074 1.344 7.676 3.621 9.844 6.985 2.164 3.363 2.894 7.816 2.726 12.472-.168 4.653-1.226 9.512-2.039 12.422-.812 2.91-1.375 3.867-1.242 4.481.129.613.957.879 4.41 1.339 3.449.458 9.524 1.11 18.094 1.602 8.574.492 19.64.824 29.437.051 9.793-.777 18.317-2.656 26.731-5.758a102 102 0 0 0 24.406-12.969c7.691-5.55 14.773-12.336 19.449-17.531 4.68-5.191 6.949-8.793 8.649-12a65 65 0 0 0 3.472-7.727c.637-1.71.774-2.32 1.258-2.816.485-.5 1.317-.887 3.926-2.973 2.613-2.086 7.008-5.867 10.965-10.773s7.48-10.934 10.804-17.586c3.329-6.652 6.457-13.93 8.844-21.129 2.387-7.203 4.031-14.324 5.168-21.601 1.133-7.282 1.758-14.715 2.016-22.051.254-7.34.137-14.578-.059-19.254-.199-4.676-.472-6.789-1.078-8.746-.605-1.957-1.547-3.758-6.203-8.551s-13.031-12.582-17.219-16.473c-4.187-3.894-4.187-3.894-4.422-4.14m0 0"/><path d="M520.887 331.922c-.032-.36-.09-1.086-.352-1.692-.265-.605-.734-1.093-4.492-4.683-3.758-3.594-10.801-10.285-14.852-14.235-4.05-3.953-5.105-5.167-6.066-6.574a24 24 0 0 1-2.492-4.758 25.8 25.8 0 0 1-1.438-5.437c-.277-1.82-.336-3.582-.336-5.793s.059-4.871-.015-7.809c-.074-2.941-.285-6.16-.778-9.539-.492-3.379-1.265-6.922-2.246-10.144a65 65 0 0 0-3.343-8.621c-1.172-2.489-2.325-4.563-3.575-6.492-1.254-1.926-2.601-3.707-4.031-5.489-1.43-1.781-2.933-3.558-4.168-5.078-1.23-1.516-2.191-2.766-3.012-4.156-.824-1.391-1.507-2.914-2.054-4.391a34 34 0 0 1-1.332-4.59c-.371-1.683-.703-3.621-1.008-5.449-.301-1.828-.574-3.551-1.008-5.832a172 172 0 0 0-1.769-8.246c-.754-3.129-1.672-6.555-2.633-9.508-.957-2.957-1.957-5.441-3.129-7.875a60 60 0 0 0-4.031-7.093 58 58 0 0 0-5.071-6.547 73 73 0 0 0-6.207-6.145 76 76 0 0 0-6.66-5.223 93 93 0 0 0-6.711-4.257 76 76 0 0 0-6.594-3.403 108 108 0 0 0-7.656-3.093 121 121 0 0 0-7.695-2.493 90 90 0 0 0-7.031-1.722 111 111 0 0 0-7.141-1.215 63 63 0 0 0-5.613-.512c-1.762-.082-3.578-.113-5.485-.012a48 48 0 0 0-5.636.625c-1.754.305-3.27.688-4.485 1.036-1.211.347-2.121.656-3.015 1.097-.895.442-1.778 1.008-2.305 1.645-.527.633-.703 1.34-.567 2.004.137.664.586 1.293 1.223 1.82s1.457.957 2.34 1.445c.879.492 1.816 1.039 2.59 1.559.773.515 1.379 1.008 1.703 1.504.324.5.363 1.008.117 1.449s-.773.812-1.527.938c-.754.128-1.731.011-3.746-.293-2.016-.301-5.067-.793-7.766-1.329-2.703-.539-5.051-1.125-7.769-1.695a154 154 0 0 0-8.883-1.562c-3.071-.45-6.125-.805-9.117-1.098-2.997-.293-5.93-.527-9.196-.625-3.269-.098-6.871-.059-10.469.047-3.601.109-7.199.285-9.363.441-2.16.156-2.887.293-3.504.02-.613-.274-1.125-.957-2.89-2.809a138 138 0 0 0-7.973-7.68 86 86 0 0 0-10.645-8.058c-4.117-2.649-8.996-5.344-14.039-7.477s-10.246-3.695-15.664-4.597c-5.422-.899-11.054-1.133-16.613-.899-5.559.235-11.035.938-15.668 2.082-4.633 1.141-8.422 2.719-11.894 4.547a62 62 0 0 0-9.52 6.184c-2.891 2.285-5.52 4.773-7.844 7.183-2.324 2.407-4.343 4.731-5.988 6.973-1.648 2.238-2.922 4.398-3.668 5.922-.746 1.519-.969 2.406-1.812 3.027-.844.625-2.309.985-5.508 1.676-3.196.691-8.121 1.715-13.184 3.059-5.062 1.339-10.266 3-14.789 4.722-4.527 1.719-8.375 3.5-13.605 6.082-5.231 2.586-11.844 5.969-17.321 8.992-5.48 3.024-9.824 5.684-13.738 8.168-3.91 2.485-7.395 4.793-10.738 7.18a218 218 0 0 0-8.785 6.633 108 108 0 0 0-4.512 3.785c-1.024.91-1.824 1.629-2.231 2.492-.406.867-.421 1.875-.078 5.977a390 390 0 0 0 2.051 18.824c1.012 7.527 2.34 15.395 3.801 23.012 1.457 7.617 3.039 14.984 5.133 23.32a552 552 0 0 0 7.074 25.418c2.379 7.781 4.531 14.043 6.957 20.363a309 309 0 0 0 8.008 18.93 304 304 0 0 0 9.156 18.219 270 270 0 0 0 10.426 17.519c3.832 5.918 8.121 12.063 12.769 18.426 4.649 6.367 9.656 12.949 14.375 18.598 4.719 5.644 9.145 10.347 14.098 15.023s10.433 9.324 16.437 14.305 12.536 10.293 18.789 14.941a218 218 0 0 0 18.707 12.508c6.473 3.875 13.446 7.637 20.614 11.18s14.527 6.863 22.726 10.242c8.196 3.379 17.235 6.816 23.18 8.984s8.801 3.071 10.332 3.539c1.535.473 1.738.512 1.797.375.059-.14-.031-.457-.387-2.453a144 144 0 0 1-1.433-9.82c-.45-4.145-.723-8.762-.391-13.262s1.27-8.883 3.422-13.308c2.152-4.422 5.519-8.883 9.59-12.559 4.07-3.68 8.843-6.574 14.437-8.766 5.598-2.191 12.016-3.679 18.239-4.109 6.222-.43 12.246.195 17.921 1.879 5.676 1.684 10.996 4.422 15.145 7.785 4.148 3.367 7.121 7.359 9.039 10.879 1.918 3.523 2.777 6.574 3.195 8.816s.387 3.676.367 4.696c-.019 1.015-.035 1.617.336 1.945s1.125.383 4.989.566c3.863.184 10.836.497 17.504.239 6.668-.262 13.035-1.09 19.011-2.446 5.977-1.359 11.567-3.238 16.657-5.867 5.093-2.629 9.683-6.004 14.14-9.851 4.453-3.848 8.77-8.164 11.758-11.981 2.992-3.82 4.652-7.14 5.785-9.656 1.133-2.52 1.742-4.234 2.156-5.508.418-1.273.637-2.101 1.192-2.765s1.437-1.165 3.254-2.329c1.816-1.168 4.562-3 7.738-6.148 3.172-3.149 6.773-7.609 10.02-12.852 3.246-5.242 6.144-11.269 8.531-17.414 2.386-6.144 4.265-12.406 5.594-18.746 1.332-6.336 2.113-12.754 2.742-19.64.625-6.891 1.093-14.247 1.261-18.454.165-4.207.028-5.261-.039-5.793-.07-.527-.07-.527-.097-.886Zm0 0"/><path fill="#b2b2b2" d="M405.062 447.961c.196.332.59.996 1.352 1.34s1.898.363 4.52.254c2.625-.114 6.738-.352 10.921-1.164 4.188-.813 8.45-2.196 12.27-4.188 3.816-1.992 7.191-4.594 10.098-7.332 2.906-2.742 5.339-5.617 6.945-8.191s2.379-4.844 2.906-6.586.801-2.961.332-3.321c-.472-.359-1.687.137-4.816 1.051-3.125.914-8.16 2.242-12.699 3.016a70.5 70.5 0 0 1-11.953.996c-3.376 0-6.09-.219-8.661-.883-2.574-.668-5.011-1.773-7.5-3.543-2.492-1.773-5.035-4.207-7.777-6.363-2.738-2.16-5.672-4.043-21.168-11.235-15.496-7.195-43.551-19.703-59.02-26.371-15.468-6.668-18.347-7.5-21.195-7.996a40.7 40.7 0 0 0-8.246-.582 45 45 0 0 0-6.488.703c-1.594.293-2.449.543-2.836.196-.391-.348-.305-1.285.316-3.625s1.785-6.075 3.391-9.989a95.5 95.5 0 0 1 5.617-11.386c1.965-3.375 3.844-6.032 5.395-7.778 1.55-1.742 2.765-2.57 3.636-3.105.871-.531 1.395-.766 1.317-1.031-.082-.266-.766-.559-2.176-.93s-3.543-.82-5.508-1.027a28.6 28.6 0 0 0-5.379-.028 42 42 0 0 0-3.945.535c-.899.168-1.27.266-1.32.149-.047-.117.226-.449 2.175-2.777 1.954-2.325 5.579-6.641 10.297-10.184 4.723-3.543 10.532-6.309 16.926-8.137 6.391-1.824 13.363-2.711 19.84-2.297 6.473.414 12.449 2.133 18.066 4.817 5.617 2.683 10.875 6.336 15.676 9.894 4.801 3.559 9.149 7.02 13.137 10.688 3.992 3.672 7.633 7.543 9.578 9.597 1.941 2.051 2.191 2.282 2.344 2.141.148-.141.207-.652.308-1.781.106-1.125.258-2.871.805-4.543.543-1.676 1.484-3.281 2.621-4.594 1.133-1.316 2.461-2.34 3.211-2.902s.926-.668 1.012-.586c.086.078.086.34.301 2.308.214 1.969.644 5.641 1.289 9.473s1.503 7.824 3.128 12.148c1.625 4.325 4.012 8.981 6.594 13.129a76.5 76.5 0 0 0 8.403 11.133c3.043 3.348 6.347 6.406 9.742 8.93 3.398 2.523 6.883 4.516 10.316 5.93a40 40 0 0 0 9.961 2.656c3.156.414 6.086.414 9.297-.141 3.211-.551 6.695-1.66 9.172-2.875 2.476-1.219 3.945-2.547 5.039-3.847 1.09-1.301 1.812-2.575 2.238-3.582.43-1.012.571-1.758.805-1.883s.566.375.926 1.258c.359.886.746 2.16.996 3.363s.359 2.336.472 3.5c.11 1.164.219 2.351.856 2.519.637.164 1.801-.691 3.031-1.964s2.531-2.961 3.887-5.149c1.355-2.187 2.765-4.871 3.859-7.609 1.094-2.739 1.867-5.535 2.379-7.996.512-2.465.762-4.594.844-6.254.086-1.66 0-2.852-.094-3.832-.098-.985-.207-1.758-.445-1.743-.235.012-.594.817-1.41 2.004-.817 1.192-2.09 2.77-3.61 4.25a34.3 34.3 0 0 1-4.801 3.86c-1.507.996-2.753 1.605-3.75 1.965-.996.359-1.742.468-2.257-.086-.512-.551-.785-1.77-1.465-3.305s-1.758-3.391-3.516-5.563c-1.754-2.171-4.191-4.664-6.984-6.683-2.797-2.02-5.949-3.567-8.91-4.594-2.961-1.023-5.731-1.519-8.137-1.797-2.406-.277-4.453-.332-6.281-.359-1.824-.027-3.43-.027-4.528.012-1.097.035-1.691.113-2.027-.2-.332-.312-.41-1.015-.449-1.968-.035-.953-.031-2.153-.039-3.235-.012-1.086-.039-2.054.347-3.008.387-.957 1.192-1.894 2.434-3.082s2.93-2.617 4.906-4.074c1.977-1.461 4.246-2.945 6.809-3.965 2.562-1.015 5.422-1.566 7.672-1.898s3.89-.449 5.066-.527 1.879-.118 2.426-.176c.547-.059.941-.137-.488-1.137-1.43-.996-4.676-2.914-10.407-5.684-5.73-2.773-13.941-6.394-19.25-8.691-5.312-2.297-7.718-3.266-12.476-4.496-4.762-1.234-11.871-2.727-17.863-3.766-5.993-1.035-10.86-1.617-15.606-2.101-4.746-.485-9.367-.871-13.781-1.024-4.414-.152-8.617-.07-11.703 0s-5.051.125-7-.511c-1.953-.637-3.891-1.965-5.785-3.348s-3.75-2.824-5.536-4.664-3.5-4.082-4.785-6.391a26 26 0 0 1-2.625-6.801c-.476-2.105-.578-3.945-.371-5.449.203-1.504.711-2.679 1.348-3.629.637-.949 1.398-1.672 2.562-2.308 1.164-.637 2.731-1.184 3.758-1.508 1.027-.32 1.516-.418 1.379-.547-.137-.125-.898-.281-2.086-.605-1.184-.325-2.785-.813-4.937-1.332a117 117 0 0 0-7.145-1.457c-2.289-.391-4.164-.625-5.359-.723s-1.703-.059-1.977-.391c-.273-.336-.312-1.039.137-3.172s1.39-5.691 3.582-9.136c2.191-3.446 5.633-6.77 9.312-9.157 3.68-2.386 7.594-3.836 11.094-4.734a49 49 0 0 1 8.902-1.41c2.309-.156 3.836-.117 4.95-.059 1.117.059 1.82.137 1.976-.136.156-.274-.234-.903-1.797-3.383s-4.293-6.817-7.738-11.004c-3.441-4.188-7.59-8.227-12.184-11.961-4.593-3.738-9.628-7.168-14.003-9.852-4.372-2.683-8.079-4.621-10.825-5.879s-4.535-1.835-5.816-2.222c-1.285-.391-2.07-.586-2.461-.289-.391.293-.391 1.074-.488 2.527-.102 1.453-.297 3.574-.801 5.965-.5 2.387-1.301 5.043-2.199 7.223-.899 2.175-1.895 3.875-2.528 4.937-.636 1.063-.91 1.496-1.242 1.496s-.722-.433-3.035-2.976c-2.312-2.543-6.547-7.203-10.934-11.11s-8.925-7.062-13.296-9.855c-4.372-2.797-8.579-5.231-12.672-7.028-4.098-1.8-8.082-2.96-10.364-3.558-2.281-.594-2.863-.621-2.824-.461.043.16.707.504 1.899 1.168 1.187.664 2.906 1.648 4.632 2.828 1.731 1.184 3.473 2.566 4.719 3.785a16.7 16.7 0 0 1 2.477 3.031c.484.762.707 1.231.5 1.411-.211.179-.848.07-2.465-.071-1.617-.136-4.219-.304-6.766-.164a33.4 33.4 0 0 0-7.261 1.215c-2.231.637-4.196 1.469-5.645 2.258-1.453.789-2.394 1.535-3.102 2.308-.703.778-1.175 1.579-.855 1.926.316.344 1.422.235 3.113.121 1.688-.109 3.953-.218 6.778-.011s6.199.734 9.406 1.675a38.7 38.7 0 0 1 8.98 3.926c2.727 1.633 5.133 3.543 7.332 5.633 2.2 2.09 4.196 4.359 5.563 6.543 1.371 2.187 2.117 4.289 2.531 5.562.418 1.274.5 1.715.223 1.883-.278.164-.914.055-5.457-.058-4.539-.11-12.989-.223-20.692.035-7.707.254-14.672.883-21.679 2.25-7.004 1.371-14.047 3.484-20.661 5.949-6.613 2.465-12.796 5.281-18.507 8.863-5.715 3.582-10.957 7.926-15.184 11.582-4.226 3.661-7.437 6.633-10.41 10.196s-5.715 7.711-7.395 10.39c-1.683 2.68-2.312 3.895-2.625 3.895-.312-.004-.312-1.215-.019-4.305.293-3.094.883-8.062 2.348-13.367 1.468-5.301 3.816-10.938 6.632-15.809 2.821-4.871 6.106-8.98 9.332-12.402a86.5 86.5 0 0 1 8.317-7.711c1.918-1.547 2.582-1.898 2.781-2.523.195-.625-.082-1.528-.727-4.461-.644-2.938-1.664-7.907-2.308-10.938-.645-3.035-.918-4.129-1.703-4.441-.782-.313-2.074.156-6.356 1.148-4.281.996-11.554 2.512-19.472 5.332-7.914 2.821-16.473 6.942-23.95 11.567-7.476 4.621-13.871 9.742-17.382 12.535-3.512 2.797-4.137 3.265-4.391 4.09-.254.82-.137 1.996.332 6.004.469 4.011 1.289 10.859 2.719 19.332 1.429 8.472 3.465 18.57 6.047 27.961s5.711 18.078 9.078 26.882 6.965 17.727 10.84 25.907 8.023 15.613 12.914 23.011c4.89 7.395 10.527 14.75 13.968 19.289 3.446 4.543 4.696 6.262 5.168 5.52.469-.742.157-3.953.196-10.137.039-6.183.429-15.34 2.308-25.551 1.879-10.214 5.242-21.484 9.391-31.035 4.148-9.547 9.078-17.371 15.219-24.062 6.14-6.692 13.488-12.246 21.398-16.739 7.906-4.492 16.375-7.921 24.453-10.246 8.082-2.324 15.774-3.543 22.942-3.793 7.168-.246 13.808.473 18.164 1.102 4.359.633 6.433 1.172 7.621 1.5 1.183.332 1.476.449 1.203.664-.274.215-1.117.527-4.238 1.691-3.121 1.168-8.524 3.184-13.879 5.961-5.36 2.782-10.672 6.325-14.684 9.504-4.012 3.184-6.723 6.004-7.914 8.965-1.187 2.961-.855 6.063-1.465 10.738-.609 4.676-2.16 10.93-4.429 16.493-2.266 5.558-5.254 10.429-7.829 15.828-2.574 5.394-4.734 11.316-6.089 17.183-1.356 5.864-1.907 11.676-2.266 18.25-.356 6.575-.52 13.914-.59 17.801s-.051 4.316.309 4.5c.363.188 1.066.129 4.847-.133 3.778-.258 10.633-.722 18.266-.621 7.633.102 16.043.766 23.707 1.985 7.668 1.218 14.582 2.988 21.086 5.062s12.59 4.457 16.937 6.563c4.344 2.101 6.95 3.933 8.391 4.984 1.438 1.051 1.711 1.324 1.641 1.504-.075.176-.489.258-1.844.785-1.356.527-3.652 1.496-5.688 2.891-2.031 1.398-3.804 3.226-4.992 5.05-1.191 1.829-1.801 3.653-2.152 4.844-.352 1.188-.449 1.742-.285 1.887.168.144.597-.117 2.804-.977 2.207-.855 6.192-2.308 10.313-3.476 4.125-1.172 8.383-2.055 13.062-2.528 4.676-.468 9.766-.523 14.942-.191 5.172.332 10.43 1.051 15.164 2.27 4.73 1.214 8.937 2.929 12.996 4.89a113 113 0 0 1 11.336 6.305c3.367 2.14 6.184 4.215 8.16 6.375 1.977 2.164 3.109 4.414 3.68 5.539.566 1.125.566 1.125.761 1.457m0 0"/><path fill="#e5e5e5" d="M453.566 351.656c1.391 1.606 3.582 4.266 4.895 7.317 1.309 3.054 1.738 6.496 1.562 9.668-.175 3.168-.957 6.066-2.562 8.078-1.606 2.015-4.031 3.152-7.043 3.308-3.012.157-6.613-.664-10.039-2.347-3.422-1.684-6.672-4.227-9.313-6.926-2.64-2.703-4.675-5.559-5.851-8.336-1.172-2.777-1.485-5.48-.918-7.75.566-2.27 2.015-4.109 3.933-5.242 1.918-1.137 4.305-1.567 7.024-1.781 2.719-.215 5.773-.215 8.453.039s4.988.765 6.438 1.293 2.035 1.074 3.421 2.679M294.156 268.184c.301-.231.895-.688.438-.922s-1.965-.25-4.93.136c-2.969.387-7.394 1.176-12.035 2.586-4.637 1.411-9.488 3.446-14.363 5.852-4.871 2.406-9.762 5.187-14.301 8.434a89.7 89.7 0 0 0-11.996 10.351c-3.266 3.383-5.614 6.438-7.356 9a62 62 0 0 0-3.621 6.047c-.742 1.406-1.094 2.152-.781 2.465.312.312 1.293.195 3.543-.078 2.25-.274 5.769-.703 8.512-.903 2.738-.195 4.695-.156 5.906-.097 1.215.058 1.683.14 1.723.394.039.254-.352.684-1.825 3.043-1.468 2.363-4.019 6.656-6.125 11.125-2.105 4.473-3.765 9.121-5.121 13.879-1.359 4.758-2.41 9.629-3.074 14.527a107 107 0 0 0-.941 14.168c0 4.344.277 8.106.582 11.235.304 3.125.636 5.617 1.222 7.933a36.4 36.4 0 0 0 1.887 5.504c.469 1.039.566.977.699-2.75.137-3.73.309-11.125 1.668-18.5 1.36-7.379 3.906-14.738 7.254-22.347s7.496-15.469 12.031-22.313c4.532-6.844 9.446-12.672 13.977-17.269 4.531-4.594 8.68-7.961 11.793-10.172 3.109-2.211 5.183-3.266 6.332-3.848 1.152-.582 1.375-.691 1.336-.754-.039-.062-.344-.082-2.274-.285-1.933-.199-5.492-.582-9.093-.871a296 296 0 0 0-9.243-.578c-2-.098-2.367-.094-2.441-.246-.074-.149.141-.453 1.965-2.547 1.828-2.098 5.266-5.985 8.918-9.336 3.656-3.352 7.531-6.168 10.808-8.188 3.274-2.015 5.954-3.23 7.293-3.839 1.336-.61 1.336-.61 1.633-.836M207.309 200.473c-.012.382-.032 1.144-.172 1.148-.141.008-.407-.746-.989-2.562-.582-1.813-1.48-4.692-1.953-8.184-.468-3.492-.507-7.602.102-11.809.605-4.207 1.855-8.511 3.93-12.324 2.074-3.816 4.972-7.144 8.824-9.824 3.855-2.68 8.668-4.715 13.953-5.477 5.281-.765 11.035-.257 16.297.782 5.265 1.035 10.039 2.601 14.519 4.715s8.668 4.773 12.032 7.632c3.367 2.856 5.91 5.907 8.527 9.262 2.617 3.359 5.305 7.02 7.523 10.523 2.215 3.504 3.957 6.852 5.465 10.02s2.781 6.156 3.66 8.242c.879 2.082 1.36 3.262 1.848 4.395.488 1.129.98 2.215.648 2.144s-1.484-1.297-3.105-2.953a209 209 0 0 0-6.043-5.941 183 183 0 0 0-7.16-6.387c-2.258-1.895-4.195-3.387-6.602-5.047a128 128 0 0 0-8.164-5.16c-2.875-1.676-5.754-3.199-8.844-4.539a78 78 0 0 0-9.394-3.356c-2.992-.855-5.672-1.402-8.715-1.746a63.6 63.6 0 0 0-9.805-.32c-3.355.156-6.66.605-9.652 1.574-2.996.969-5.676 2.457-7.809 3.981-2.132 1.527-3.718 3.093-4.988 4.824a19 19 0 0 0-2.828 5.547c-.598 1.918-.832 3.855-.953 5.601-.125 1.746-.133 3.301-.137 4.078-.008.778-.008.778-.015 1.161m0 0"/><path fill="#fff" d="M450.836 295.52c.441-.793 1.094-2 1.48-3.161.387-1.164.512-2.281.512-3.097 0-.817-.125-1.328-.387-1.684-.261-.351-.664-.547-1.183-.586-.52-.043-1.156.067-1.762.324-.609.254-1.191.657-1.711 1.149a6.7 6.7 0 0 0-1.285 1.652c-.312.582-.477 1.164-.625 1.832-.145.672-.27 1.434-.219 2.176.047.738.27 1.457.762 2.004.488.547 1.25.922 1.879 1.051.629.132 1.129.023 1.496-.227s.602-.637 1.043-1.433M373.875 291.941c1.879.02 5.637.059 7.926.079 2.289.019 3.109.019 3.148-.52.039-.535-.703-1.613-1.691-2.875a45 45 0 0 0-3.59-4.07c-1.371-1.36-2.879-2.629-4.648-3.668-1.77-1.035-3.805-1.84-5.813-2.348-2.004-.508-3.98-.723-5.848-.832-1.871-.105-3.629-.105-5.363.117a23 23 0 0 0-4.715 1.145c-1.281.469-2.14.961-2.914 1.625a9.8 9.8 0 0 0-1.918 2.269c-.461.762-.695 1.449-.129 2.348.571.898 1.938 2.016 3.817 2.926s4.265 1.613 7.406 2.218c3.141.61 7.035 1.118 9.234 1.36 2.203.246 2.711.226 2.965.219.254-.012.254-.012 2.133.007m0 0"/><path fill="#e5e5e5" d="M372.848 291.707c-.168-.051-.5-.148-2.614-.867s-6.007-2.059-9.89-3.746c-3.883-1.688-7.758-3.723-11.106-5.817-3.343-2.093-6.16-4.246-8.117-5.832s-3.055-2.601-3.66-3.242c-.606-.641-.723-.906-.813-1.18-.086-.273-.144-.558-.23-.582-.082-.023-.191.211-.324.817a14.6 14.6 0 0 0-.317 2.691c-.023 1.113.086 2.371.368 3.746.277 1.371.73 2.86 1.296 4.239a22 22 0 0 0 2.141 3.968c.891 1.325 1.988 2.692 2.996 3.836a34 34 0 0 0 2.875 2.918 43 43 0 0 0 2.961 2.406c1.031.77 2.117 1.536 3.055 2.122.941.586 1.734 1 2.414 1.281.679.285 1.246.441 1.808.445s1.121-.14 1.692-.453c.574-.312 1.16-.793 2.019-1.453.864-.66 1.996-1.504 3.391-2.262s3.047-1.433 4.34-1.859 2.222-.602 3.144-.715c.926-.113 1.844-.168 2.356-.203.512-.031.613-.043.609-.074-.004-.036-.117-.086-.172-.11-.058-.027-.058-.027-.222-.074M482.672 327.301c-.168-.172-.5-.52-7.613-7.399-7.118-6.875-21.016-20.285-28.18-27.226-7.164-6.938-7.594-7.406-7.918-8.082a6 6 0 0 1-.547-2.406c-.008-.852.188-1.676.469-2.641.285-.969.656-2.086.941-3.613.281-1.524.477-3.461.633-5.801.16-2.336.277-5.078.336-6.75s.059-2.278.34-2.231c.285.051.851.754 1.574 1.996a30 30 0 0 1 2.211 4.715 18.5 18.5 0 0 1 1.066 4.903c.129 1.605.051 3.207 0 4.351-.046 1.145-.066 1.832.258 1.949.32.118.988-.332 1.914-.765.93-.43 2.125-.84 3.504-1.125a23 23 0 0 1 4.32-.442 17 17 0 0 1 3.516.34c.961.203 1.692.457 2.176.633s.719.273.734.445c.016.168-.191.414-.519.844-.325.434-.778 1.047-1.125 1.813-.344.761-.59 1.671-.739 2.539-.144.863-.195 1.687-.082 2.41.114.722.387 1.351.789 1.871.399.523.93.945 1.458 1.187.527.239 1.054.297 1.597.313.543.012 1.102-.016 1.5-.184.395-.164.629-.468.817-.957.183-.488.32-1.164.437-2.343s.215-2.86.109-5.133a56 56 0 0 0-.988-7.981c-.566-2.855-1.39-5.715-2.601-8.511-1.215-2.797-2.821-5.54-4.657-8.102-1.84-2.563-3.914-4.949-7.039-8.578-3.129-3.633-7.304-8.508-9.933-11.539s-3.711-4.219-4.235-5.672c-.527-1.453-.5-3.168-.648-6.008-.149-2.836-.477-6.797-1.637-10.851-1.164-4.055-3.16-8.204-5.625-11.903-2.465-3.695-5.398-6.945-8.254-9.254a29 29 0 0 0-7.926-4.558c-2.289-.879-4.089-1.274-5.636-1.489-1.543-.214-2.836-.254-2.934.039-.097.297.996.922 2.719 2.645 1.723 1.719 4.07 4.539 5.988 7.375a44.7 44.7 0 0 1 4.52 8.492c1.117 2.797 1.859 5.535 2.308 7.395.45 1.859.606 2.836.118 2.699-.489-.137-1.626-1.387-4.481-3.484-2.859-2.098-7.441-5.039-12.609-7.782-5.168-2.746-10.922-5.293-17.149-7.558-6.226-2.27-12.922-4.262-19.562-5.84a172 172 0 0 0-19.867-3.516c-6.645-.773-13.34-1.16-18.211-1.312-4.871-.149-7.914-.059-10.508.09-2.594.152-4.739.367-6.074.582-1.332.214-1.864.425-2.297.664-.434.238-.77.504-.668.613s.64.062 1.968.297c1.325.23 3.434.742 5.899 1.828 2.469 1.086 5.289 2.746 8.098 4.422 2.808 1.672 5.605 3.359 8.425 5.254 2.825 1.898 5.672 4 8.317 6.16a90 90 0 0 1 7.304 6.641 86 86 0 0 1 6.047 6.863 105 105 0 0 1 4.762 6.523 151 151 0 0 1 3.188 4.922c.632 1.02.726 1.207.671 1.293s-.253.07-1.269.047-2.844-.059-4.66.012a50 50 0 0 0-5.395.511 42 42 0 0 0-5.488 1.172c-1.945.559-4.078 1.321-6.035 2.231a34.6 34.6 0 0 0-5.293 3.062 28 28 0 0 0-4.219 3.621 34 34 0 0 0-3.754 4.696 24.8 24.8 0 0 0-2.613 5.125c-.656 1.781-1.106 3.66-1.344 4.816-.242 1.152-.269 1.582-.254 1.969.012.387.071.73.207.816.137.09.356-.078 2.238-1.07s5.434-2.813 9.126-4.309c3.695-1.496 7.531-2.672 12.109-3.336s9.898-.82 14.594-.293c4.695.528 8.765 1.743 12.797 3.696 4.031 1.957 8.023 4.66 12.093 7.847 4.071 3.192 8.215 6.868 11.563 10.45 3.347 3.578 5.89 7.062 7.336 9.136 1.449 2.075 1.8 2.739 2.113 2.602s.59-1.074 1.156-2.992c.567-1.918 1.426-4.813 2.094-7.887.664-3.07 1.133-6.32 1.387-8.668.258-2.348.297-3.793.336-4.852.039-1.054.078-1.722.293-1.566s.605 1.137 1.308 3.035c.707 1.899 1.723 4.715 2.664 7.922.938 3.211 1.797 6.809 2.387 10.371.586 3.563.898 7.082.805 10.356-.094 3.273-.594 6.293-1.047 8.523-.449 2.234-.852 3.672-1.309 4.625-.453.949-.965 1.414-.867 1.941s.797 1.118 2.25 2.723c1.453 1.609 3.652 4.235 5.805 6.516a64 64 0 0 0 6.402 5.949c2.145 1.73 4.328 3.25 6.32 4.371 1.993 1.121 3.793 1.84 5.578 2.34 1.782.496 3.555.773 5.532.816 1.98.039 4.164-.152 6.422-.304 2.253-.153 4.578-.262 7.07-.387 2.488-.125 5.144-.266 7.441-.242 2.293.023 4.227.207 6.348.41 2.125.203 4.434.43 5.734.555 1.301.128 1.594.156 1.664.097.071-.058-.078-.203-.152-.277-.078-.074-.078-.074-.242-.246m0 0"/><path fill="#fff" d="M413.078 396.859c-.234-.39-.703-1.164-6.535-8.761a4239 4239 0 0 0-23.531-30.309c-6.516-8.285-8.356-10.437-9.938-11.848-1.586-1.406-2.918-2.074-4.304-2.445-1.391-.371-2.84-.449-3.895-.449-1.059 0-1.723.078-2.055-.254s-.332-1.078-.508-2.406c-.175-1.332-.531-3.25-1.371-4.891-.839-1.644-2.171-3.016-3.582-3.934-1.406-.921-2.894-1.39-4.48-1.546-1.582-.157-3.266 0-4.266.332-.996.332-1.308.843-1.543.668-.234-.18-.39-1.039-.804-2.289-.411-1.254-1.075-2.899-2.055-4.266-.977-1.371-2.27-2.469-3.695-3.25a11.4 11.4 0 0 0-4.715-1.371c-1.723-.117-3.602.121-4.934.883-1.328.761-2.113 2.054-2.582 3.422-.469 1.371-.625 2.82-.488 4.421.137 1.606.566 3.368.996 4.895.434 1.523.863 2.816 1.234 3.969.371 1.156.684 2.172 1.274 2.449.586.273 1.445-.199 2.523-.688 1.074-.488 2.367-.996 3.52-1.289 1.156-.293 2.172-.371 3.094-.41.917-.039 1.742-.039 2.445-.039s1.289 0 1.586.352c.293.351.293 1.054.312 2.015.02.957.059 2.172.371 3.598.313 1.43.899 3.074 1.528 4.598.625 1.527 1.289 2.937 1.777 3.972.492 1.039.805 1.703 1.371 1.762.567.059 1.391-.488 2.348-1.176.961-.683 2.054-1.504 3.504-2.133 1.445-.625 3.246-1.054 4.48-1.23 1.231-.176 1.899-.098 2.485-.039.585.058 1.093.098 1.347.508.258.41.258 1.195.297 2.406.039 1.215.117 2.859.391 4.383a16.8 16.8 0 0 0 1.425 4.363c.688 1.43 1.586 2.879 2.352 4.031a57 57 0 0 0 1.953 2.778c.57.765 1.078 1.429.863 1.488-.214.059-1.156-.488-2.289-1.234-1.136-.743-2.464-1.68-3.504-2.622-1.035-.937-1.781-1.878-2.406-2.777-.625-.898-1.133-1.762-1.449-2.543-.313-.785-.43-1.488-.898-1.84-.469-.351-1.293-.351-2.446-.215-1.156.137-2.64.411-4.09.879-1.449.473-2.855 1.137-3.972 1.879a13.3 13.3 0 0 0-2.563 2.27c-.625.707-1.054 1.293-1.508 1-.449-.293-.918-1.469-1.679-3.211-.766-1.742-1.821-4.051-2.606-5.93-.781-1.875-1.289-3.324-1.562-4.539-.274-1.211-.313-2.191-.332-2.914-.024-.723-.024-1.191-.434-1.43-.41-.234-1.23-.234-2.25.024-1.015.254-2.23.762-3.246 1.367a11.9 11.9 0 0 0-2.406 1.898c-.571.586-.883 1.059-1.156 1.469-.274.41-.508.762-.84.606s-.766-.821-1.703-2.368-2.387-3.972-3.407-5.832c-1.015-1.859-1.601-3.148-2.07-4.597-.473-1.446-.824-3.051-1.332-3.129s-1.176 1.367-1.605 2.933c-.43 1.567-.625 3.25-.782 4.872-.156 1.625-.273 3.191-.195 4.816a24 24 0 0 0 .762 4.871c.41 1.566.961 3.012 1.547 4.031.586 1.016 1.21 1.602 1.937 1.957a4.24 4.24 0 0 0 2.27.391 3.4 3.4 0 0 0 1.918-.844c.566-.488 1.074-1.191 1.406-.957s.488 1.41.746 2.582c.254 1.176.605 2.348 1.094 3.406.488 1.055 1.117 1.997 1.918 2.797a8.95 8.95 0 0 0 2.855 1.918c1.078.449 2.25.684 3.387.801 1.133.117 2.23.117 3.461-.039 1.234-.156 2.605-.469 3.445-.137s1.152 1.313 1.625 2.387c.469 1.078 1.094 2.25 2.035 3.426.938 1.172 2.192 2.347 3.754 3.207 1.567.863 3.445 1.41 5.012 1.625 1.562.215 2.816.097 3.773-.098.961-.195 1.625-.469 2.309-.922.687-.449 1.391-1.074 1.859-.898.469.176.707 1.156 1 1.976s.645 1.489 1.465 2.231c.824.742 2.113 1.566 3.738 2.348s3.582 1.527 10.192 3.656c6.613 2.129 17.879 5.64 23.867 7.469 5.984 1.824 6.691 1.964 7.043 2.031.355.07.355.07.117-.317m0 0"/></symbol></svg>