<svg xmlns="http://www.w3.org/2000/svg" viewBox="50 151 500 301"><symbol id="kiekko-orit" viewBox="50 151 500 301"><path fill="#80b9de" d="M444.062 143.895c1.129-1.016 2.997-2.825 4.524-4.418 1.523-1.594 2.707-2.969 3.711-4.711 1.008-1.739 1.832-3.844 2.301-5.871.468-2.028.582-3.977.586-5.747.004-1.769-.102-3.355-.313-4.453-.211-1.097-.527-1.707-.777-2.191-.254-.484-.438-.84-.848-.801s-1.043.473-1.863.91c-.824.438-1.836.879-3.223 1.34-1.387.465-3.148.942-5.805 1.016s-6.203-.254-11.367-1.102c-5.164-.847-11.937-2.215-19.992-4.117s-17.391-4.344-25.699-6.168c-8.313-1.824-15.598-3.035-22.156-3.887-6.559-.851-12.391-1.343-17.844-1.414-5.453-.066-10.531.285-14.449.629-3.922.34-6.688.668-8.403.887-1.715.223-2.379.34-2.715.16-.339-.176-.351-.645-.441-1.937-.09-1.29-.262-3.403-.762-5.551-.504-2.153-1.336-4.336-2.406-6.231-1.074-1.894-2.383-3.5-3.621-4.808-1.238-1.313-2.402-2.325-4.07-3.215-1.672-.891-3.844-1.656-5.235-2.07-1.39-.411-1.996-.473-2.34-.043-.339.429-.417 1.351-1.222 2.871-.805 1.523-2.336 3.644-5.391 5.89-3.058 2.242-7.64 4.606-12.551 6.688-4.914 2.078-10.156 3.875-15.105 5.515-4.949 1.641-9.606 3.129-14.18 4.872-4.574 1.746-9.066 3.75-13.047 5.585-3.976 1.84-7.441 3.508-10.355 5.047-2.918 1.535-5.285 2.938-7.367 4.407a51 51 0 0 0-4.825 3.882c-1.113 1.008-1.542 1.481-1.882 1.5-.344.02-.59-.429-1.258-1.593s-1.758-3.043-3.156-4.477c-1.403-1.437-3.114-2.43-4.832-3.227-1.715-.8-3.434-1.41-4.938-1.789a22 22 0 0 0-3.723-.601c-.933-.07-1.515-.059-1.847.242-.336.297-.422.887-.684 1.703-.262.813-.695 1.86-1.168 3.176-.472 1.316-.98 2.902-1.777 4.457s-1.883 3.07-3.133 4.609c-1.254 1.543-2.664 3.106-4.445 4.582-1.781 1.477-3.926 2.864-6.192 4.446-2.269 1.582-4.652 3.359-7.347 5.051-2.7 1.691-5.707 3.296-8.434 5.05-2.723 1.75-5.16 3.645-7.684 5.946-2.519 2.304-5.124 5.011-7.171 7.496a49 49 0 0 0-4.637 6.629c-1.102 1.894-1.816 3.437-2.324 5.003-.504 1.571-.805 3.168-1.137 4.856-.328 1.687-.691 3.461-.738 5.676s.226 4.867.515 6.984c.293 2.117.602 3.703.91 4.828.305 1.125.614 1.793.93 2.442.32.648.649 1.277.465 1.91-.18.633-.879 1.269-2.297 2.664-1.414 1.394-3.547 3.547-6.699 6.703-3.156 3.156-7.324 7.313-11.731 12.016-4.402 4.707-9.035 9.957-13.125 15.152-4.089 5.191-7.632 10.324-11.257 15.809-3.629 5.488-7.344 11.328-10.305 16.21s-5.172 8.813-7.758 12.665c-2.586 3.855-5.547 7.64-8.293 11.093a967 967 0 0 1-7.695 9.555c-2.422 2.973-4.735 5.793-6.527 8.613-1.793 2.824-3.067 5.645-3.848 8.239-.781 2.593-1.07 4.957-1.152 7.234a34 34 0 0 0 .433 6.871 46.3 46.3 0 0 0 1.824 7.266 40 40 0 0 0 2.528 5.785c.863 1.629 1.703 2.984 2.515 4.09.813 1.101 1.602 1.953 2.039 2.98.438 1.031.52 2.235.7 3.817.179 1.585.457 3.546.835 5.199.379 1.648.864 2.98 1.391 4.101.531 1.118 1.102 2.024 1.961 3.207.856 1.188 2 2.653 3.434 3.934 1.437 1.277 3.168 2.371 5 3.195 1.832.821 3.761 1.375 5.562 1.742 1.797.364 3.465.54 4.824.555 1.36.016 2.411-.129 3.414-.312 1.008-.18 1.969-.403 2.668-.305.7.094 1.137.504 2.043 1.152.907.645 2.278 1.524 3.258 2.137.981.609 1.571.949 1.848 1.48.277.536.238 1.258.375 2.071.14.808.453 1.707.777 2.504a19 19 0 0 0 1.043 2.183c.391.692.84 1.375 1.317 1.981.48.601.984 1.125 1.644 1.711.66.59 1.477 1.242 2.356 1.89.878.649 1.82 1.285 2.707 1.774.886.484 1.722.816 2.562 1.187.84.375 1.684.789 2.496 1 .813.207 1.59.211 2.633.176 1.039-.035 2.34-.105 3.242-.215.899-.109 1.399-.254 1.926-.109.527.148 1.082.59 2.219 1.383 1.136.789 2.855 1.933 4.785 2.968 1.93 1.036 4.07 1.957 7.004 2.547 2.933.594 6.66.852 10.304.469s7.211-1.414 10.856-2.68c3.644-1.265 7.371-2.769 11.621-4.754s9.027-4.445 13.004-7.273c3.98-2.828 7.16-6.023 9.453-9.281s3.699-6.582 4.617-9.61a43.7 43.7 0 0 0 1.555-7.5c.199-1.734.168-2.461.379-3.007.215-.547.668-.918 1.187-1.239.52-.32 1.102-.593 3.141-1.601 2.035-1.012 5.531-2.758 9.973-4.965 4.441-2.203 9.832-4.871 15.265-7.235 5.434-2.363 10.91-4.421 15.848-6.101 4.937-1.676 9.336-2.973 12.808-3.981 3.469-1.007 6.012-1.73 7.555-2.136 1.547-.407 2.094-.496 2.555-.219.465.273.84.914 1.496 1.957.652 1.039 1.586 2.484 2.855 4.449 1.27 1.965 2.879 4.457 4.063 6.992 1.187 2.536 1.945 5.114 2.387 8.016.441 2.898.566 6.121.488 9.426s-.356 6.699-1.043 10.41a66.4 66.4 0 0 1-3.34 11.754c-1.551 4.012-3.558 8-6.445 12.32s-6.653 8.965-11.629 13.899c-4.973 4.929-11.156 10.14-18.609 14.468-7.454 4.325-16.176 7.766-24.504 10.125s-16.258 3.637-24.793 3.922-17.672-.422-27.832-2.582-21.34-5.773-28.969-8.398-11.707-4.266-14.719-5.5c-3.016-1.231-4.969-2.055-5.644-1.848-.676.203-.075 1.442 3.836 6.5 3.906 5.059 11.125 13.942 17.554 20.504 6.434 6.559 12.078 10.793 17.785 14.832 5.711 4.039 11.485 7.879 17.778 11.352 6.293 3.472 13.101 6.574 20.066 9.211 6.965 2.636 14.078 4.804 20.934 6.703 6.855 1.902 13.449 3.527 20.941 4.894a229 229 0 0 0 24.645 3.094c8.754.617 17.867.746 27.07.496 9.203-.254 18.5-.887 27.059-1.801a321 321 0 0 0 23.449-3.402c7.062-1.289 13.367-2.668 21.437-4.941 8.067-2.274 17.899-5.442 27.242-8.848 9.34-3.406 18.192-7.051 26.622-11.051 8.429-4.004 16.433-8.363 24.015-13.277s14.742-10.383 20.945-15.891c6.204-5.512 11.45-11.062 14.86-14.844 3.414-3.777 4.988-5.785 8.387-10.363 3.394-4.578 8.613-11.726 11.609-16.262 3-4.535 3.781-6.453 4.336-8.187.551-1.734.879-3.277.469-4.434-.407-1.156-1.543-1.922-1.973-1.191-.434.73-.207 2.543-2.625 6.793-2.418 4.254-7.531 10.543-9.824 15.523-2.293 4.985-1.77 8.66-1.524 11.739.243 3.078.207 5.566.223 7.269s.078 2.625.395 2.934c.312.304.882-.004 4.14-2.301 3.262-2.293 9.219-6.57 14.195-10.727 4.973-4.16 8.965-8.195 13.25-13.492 4.29-5.297 8.864-11.851 12.743-18.605s7.054-13.707 10.308-21.801c3.25-8.094 6.582-17.324 8.766-26.016 2.183-8.691 3.223-16.843 3.933-25.511.715-8.664 1.106-17.84.715-27.047-.39-9.203-1.562-18.442-3.578-28.028-2.019-9.586-4.879-19.519-9.562-29.902-4.68-10.383-11.176-21.211-17.621-30.051-6.446-8.84-12.836-15.687-20.012-21.89s-15.133-11.758-22.094-16.176c-6.961-4.414-12.926-7.692-17.105-9.758s-6.575-2.926-7.953-3.43c-1.379-.5-1.743-.644-1.801-.789-.059-.144.183-.293.504-.472.316-.184.707-.399 1.839-1.414m0 0"/><path fill="#fff" d="M283.711 163.43c-7.399 2.957-22.195 8.875-31.399 12.64-9.207 3.766-12.82 5.375-17.019 8.118-4.199 2.742-8.984 6.613-12.488 9.988-3.504 3.371-5.723 6.246-7.164 8.051-1.442 1.804-2.106 2.546-2.582 3.078-.473.535-.754.859-.684 1.207.07.351.496.718 1.07 1.105a20 20 0 0 0 1.91 1.094c.606.305 1.083.512.895.73-.191.215-1.051.446-3.57 1.274-2.52.824-6.696 2.25-10.899 3.941-4.199 1.692-8.418 3.653-12.316 5.524a449 449 0 0 0-9.582 4.742c-2.125 1.09-2.797 1.48-3.594 1.633-.793.152-1.707.066-2.762-.11-1.054-.172-2.254-.433-3.285-.859a9.9 9.9 0 0 1-2.59-1.586c-.687-.578-1.187-1.145-1.675-1.242-.489-.098-.969.273-1.649 1.004-.683.73-1.566 1.828-2.453 3.218-.891 1.395-1.781 3.086-2.613 4.872-.832 1.785-1.602 3.664-2.153 5.371-.554 1.707-.894 3.246-1.078 4.683-.183 1.442-.215 2.778-.183 3.742.031.961.121 1.543-.086 2.075-.207.531-.715 1.007-2.395 2.664a602 602 0 0 0-7.562 7.593 314 314 0 0 0-10.067 10.743c-3.8 4.25-8.164 9.363-11.785 13.832-3.621 4.472-6.492 8.3-9.234 11.925s-5.352 7.04-6.766 8.934c-1.414 1.891-1.633 2.262-1.48 2.402.152.141.675.055 1.664.043.992-.007 2.449.055 3.906.274s2.914.586 4.254 1.195 2.558 1.461 3.633 2.492c1.078 1.035 2.015 2.254 2.668 3.711a11.2 11.2 0 0 1 .957 4.961c-.067 1.809-.567 3.723-1.395 5.41-.824 1.684-1.98 3.141-3.109 4.438-1.133 1.293-2.242 2.426-3.485 3.351a17.8 17.8 0 0 1-3.742 2.11c-1.129.469-2.023.687-2.914.59-.894-.098-1.785-.512-2.144-1.614-.36-1.097-.184-2.882.195-4.765.383-1.883.969-3.86.742-5.43-.23-1.566-1.273-2.719-2.742-3.457-1.469-.742-3.363-1.066-4.613-1.285-1.254-.219-1.864-.324-2.899-.442s-2.5-.242-3.371-.308c-.867-.067-1.144-.07-1.199.027-.051.102.125.309.492.844a44 44 0 0 1 1.383 2.125c.445.734.773 1.344 1.043 1.953.273.609.492 1.219.316 1.797-.172.574-.738 1.121-1.347 1.848-.61.73-1.262 1.644-1.743 2.566a9.2 9.2 0 0 0-.925 2.777c-.141.914-.118 1.805.175 2.914s.86 2.438 1.493 3.766c.629 1.328 1.324 2.656 1.816 3.668.488 1.012.773 1.707.934 2.328.164.617.207 1.164.468 1.457.262.293.739.336 2.274.324 1.535-.007 4.125-.074 6.32-.269 2.199-.195 4.004-.524 5.672-.883a80 80 0 0 0 5.004-1.262c1.816-.511 3.926-1.14 6.016-1.75 2.089-.609 4.156-1.199 5.265-.937 1.11.262 1.262 1.371.719 2.437-.543 1.067-1.785 2.09-3.004 2.731-1.219.644-2.414.902-6.125 2.722-3.711 1.817-9.934 5.188-15.242 7.766s-9.707 4.363-12.645 5.106c-2.937.738-4.414.433-6.593-.567-2.176-1.004-5.047-2.699-6.59-4.703-1.547-2-1.766-4.309-3.028-7.246-1.261-2.938-3.566-6.504-5.156-10.379-1.59-3.871-2.461-8.051-1.742-12.164s3.027-8.16 5.051-11.184 3.761-5.027 11.035-15.558c7.273-10.535 20.082-29.598 31.347-44.422s20.989-25.41 30.653-34.332c9.664-8.926 19.262-16.188 32.375-25.485 13.109-9.293 29.726-20.617 45.176-29.847 15.449-9.235 29.726-16.375 41.726-20.621 12.004-4.246 21.727-5.602 28.559-5.168 6.832.429 10.773 2.644 12.125 5.969 1.355 3.324.125 7.753-1.367 10.203-1.493 2.445-3.247 2.906-4.895 3.152-1.644.246-3.184.277-4.633.519-1.449.247-2.812.7-3.492.926-.68.231-.68.231-8.078 3.192M310.52 304.848c1.132 1.156 3.394 3.461 6.007 6.746 2.61 3.289 5.571 7.551 8.528 12.926a121.3 121.3 0 0 1 8.226 18.542c2.309 6.68 3.961 13.555 5.047 20.063a122.6 122.6 0 0 1 1.699 18.668c.086 6.027-.261 11.949-.98 17.387a105 105 0 0 1-3.133 15.082c-1.328 4.679-2.894 9.074-3.98 12.597-1.09 3.528-1.7 6.18-3.266 8.422s-4.09 4.071-9.356 5.766c-5.265 1.699-13.273 3.265-18.714 3.418-5.442.152-8.313-1.11-9.707-4.047-1.391-2.938-1.305-7.551-.02-11.797 1.281-4.242 3.762-8.113 6.02-15.183 2.261-7.067 4.297-17.329 5.066-26.895.773-9.563.281-18.422-1.012-27.41-1.293-8.985-3.386-18.094-5.293-25.664-1.91-7.571-3.632-13.602-4.445-17.949-.812-4.348-.719-7.008-.113-9.364.601-2.351 1.711-4.398 2.972-5.746 1.266-1.348 2.68-2.004 4.051-2.207 1.371-.207 2.695.031 4.012.445s2.625 1 3.832 1.872c1.207.871 2.316 2.023 2.871 2.601.555.574.555.574 1.688 1.727m0 0"/><path fill="#01143e" d="M417.664 147.363c-.363-.109-1.086-.324-.937-.484.144-.164 1.16-.27 2.531-.445 1.371-.172 3.101-.414 5.121-1.043 2.016-.633 4.324-1.657 6.66-2.895 2.34-1.242 4.711-2.699 6.539-4.203 1.828-1.5 3.113-3.047 4.172-4.469a44 44 0 0 0 2.426-3.629c.531-.898.762-1.39.578-1.597-.188-.207-.785-.129-2.27-.078a48 48 0 0 1-6.824-.223c-2.972-.309-6.543-.953-11.328-1.922s-10.785-2.262-18.156-3.945c-7.367-1.684-16.11-3.758-23.809-5.426-7.695-1.668-14.355-2.93-20.211-3.734-5.851-.805-10.902-1.153-16.058-1.305-5.157-.153-10.422-.11-15.059.129-4.633.242-8.637.676-12.25 1.328a68 68 0 0 0-9.488 2.414 66 66 0 0 0-6.137 2.437c-1.391.633-2.09.981-2.109.883-.024-.097.629-.64 1.675-1.621 1.043-.98 2.481-2.394 3.668-3.98 1.184-1.59 2.122-3.352 2.696-5.399.578-2.047.797-4.375.621-6.375a13.7 13.7 0 0 0-1.504-5.164c-.762-1.484-1.723-2.781-2.356-3.57-.632-.785-.941-1.063-1.203-.953-.261.105-.476.597-1.23 1.468-.754.868-2.047 2.114-3.914 3.504-1.871 1.391-4.32 2.922-7.141 4.372-2.824 1.453-6.023 2.824-10 4.203-3.976 1.382-8.734 2.773-13.25 4.129-4.515 1.355-8.793 2.679-13.14 4.246-4.344 1.57-8.762 3.382-12.817 5.3a121 121 0 0 0-10.816 5.793c-3.055 1.848-5.473 3.524-7.746 5.375-2.274 1.848-4.407 3.871-6.274 5.723-1.867 1.855-3.469 3.535-4.605 4.852-1.141 1.316-1.817 2.273-2.289 3.003-.469.731-.731 1.239-.836 1.2-.11-.039-.063-.621-.078-1.778-.016-1.152-.094-2.879-.36-4.609-.269-1.73-.734-3.469-1.457-5.129a20.2 20.2 0 0 0-2.691-4.473 15.1 15.1 0 0 0-2.692-2.621c-.726-.539-1.187-.754-1.586-.886-.402-.129-.738-.176-.91-.032-.168.149-.168.485-.261 1.141a9.7 9.7 0 0 1-.758 2.691c-.489 1.071-1.27 2.239-2.617 3.805a51 51 0 0 1-5.457 5.391c-2.196 1.859-4.676 3.625-8.145 5.906s-7.922 5.078-11.551 7.434-6.429 4.261-9.078 6.308c-2.644 2.047-5.137 4.231-7.293 6.445-2.152 2.219-3.969 4.465-5.199 6.403-1.231 1.937-1.879 3.57-2.387 5.433a31.4 31.4 0 0 0-1.015 6 27.8 27.8 0 0 0 .23 5.891 24 24 0 0 0 1.363 5.152c.625 1.61 1.414 3.137 2.121 4.356a31 31 0 0 0 1.793 2.754c.454.621.723.949.657 1.258-.063.308-.465.605-2.305 2.105s-5.113 4.211-8.883 7.676-8.035 7.687-12.129 11.996c-4.09 4.309-8.008 8.703-11.64 13.144-3.633 4.438-6.985 8.922-10.293 13.512-3.309 4.59-6.571 9.293-9.27 13.621-2.699 4.332-4.832 8.293-7.008 12.078-2.175 3.786-4.394 7.399-7.05 11.121-2.653 3.719-5.743 7.551-8.747 11.25-3.003 3.7-5.918 7.266-8.136 10.27-2.223 3.004-3.746 5.441-4.918 7.789-1.176 2.352-2.004 4.613-2.504 6.856a23.3 23.3 0 0 0-.524 6.703 25.2 25.2 0 0 0 1.352 6.55c.715 2.043 1.676 3.872 2.621 5.528.945 1.652 1.883 3.133 2.578 4.351.695 1.219 1.153 2.176 1.481 3.254.324 1.074.523 2.274.75 3.785.23 1.512.488 3.34.89 4.93.407 1.586.95 2.938 1.754 4.242.805 1.305 1.871 2.567 3.176 3.516 1.305.945 2.852 1.574 4.82 1.957 1.969.379 4.364.512 6.473.476a40 40 0 0 0 5.133-.402c1.191-.172 1.746-.324 2.203-.18.457.149.816.594 1.746 1.504.93.907 2.434 2.278 3.922 3.508a58 58 0 0 0 4.101 3.094c1.129.769 1.914 1.215 2.528 1.531.617.317 1.062.504 1.187.735.125.226-.07.5-.261.906a4.45 4.45 0 0 0-.415 1.722c-.035.782.075 1.805.411 2.708.336.902.902 1.687 1.566 2.359.664.676 1.426 1.242 2.34 1.773.914.535 1.98 1.035 3.187 1.45 1.207.414 2.555.738 3.723.871a12.2 12.2 0 0 0 2.848-.024c.707-.086 1.144-.195 1.433-.285.293-.09.438-.16.598-.117.156.043.324.199 1.09.758a38 38 0 0 0 3.695 2.398 37 37 0 0 0 5.121 2.336c1.762.656 3.504 1.156 5.297 1.449a24.2 24.2 0 0 0 5.621.242c1.973-.14 4.07-.507 7.488-1.597s8.157-2.906 12.418-4.86c4.266-1.953 8.051-4.046 10.918-5.851 2.871-1.801 4.829-3.317 6.481-5.16 1.652-1.848 3-4.024 3.992-6.45.988-2.425 1.621-5.101 2.051-7.472.433-2.371.668-4.438.785-5.77s.117-1.933.465-2.496c.344-.558 1.039-1.082 3.258-2.492a232 232 0 0 1 10.113-6.027 199 199 0 0 1 13.781-7.043c5.113-2.375 10.813-4.766 16.254-6.856s10.621-3.875 16.082-5.613a540 540 0 0 1 14.324-4.332c3.117-.891 3.606-.981 4.067-.848.465.129.898.477 2.453 1.664 1.551 1.188 4.219 3.215 6.691 6.078 2.473 2.86 4.75 6.551 6.504 10.247 1.754 3.691 2.985 7.382 3.785 11.878.801 4.493 1.172 9.786.832 14.739-.339 4.957-1.386 9.57-2.738 14.093-1.355 4.524-3.016 8.958-5.355 13.575-2.34 4.613-5.356 9.414-8.801 13.879-3.445 4.461-7.324 8.586-11.512 12.523-4.183 3.938-8.676 7.695-13.848 11.016-5.168 3.324-11.015 6.218-17.015 8.679-6.004 2.461-12.156 4.493-19.305 5.938s-15.289 2.305-21.992 2.601c-6.703.301-11.969.039-17.734-.636-5.766-.672-12.032-1.762-17.332-2.981a131 131 0 0 1-12.122-3.406c-2.492-.836-3.144-1.164-3.164-.988-.023.172.586.847 2.329 2.672 1.742 1.82 4.617 4.789 8.023 7.656 3.406 2.871 7.348 5.64 11.652 8.347 4.309 2.707 8.989 5.356 14.649 8.188 5.664 2.828 12.312 5.844 18.898 8.34 6.586 2.492 13.11 4.461 19.817 6.09 6.711 1.632 13.601 2.925 21.019 4.093 7.418 1.172 15.356 2.215 23.633 2.801 8.281.586 16.894.707 25.601.469a328 328 0 0 0 25.59-1.703 301 301 0 0 0 22.172-3.215c6.684-1.219 12.645-2.523 20.274-4.676 7.632-2.148 16.929-5.144 25.765-8.363 8.836-3.223 17.203-6.668 25.176-10.453 7.969-3.785 15.539-7.91 22.711-12.555 7.172-4.648 13.941-9.82 20.281-15.234 6.34-5.418 12.246-11.078 17.016-16.403a126 126 0 0 0 11.14-14.433c2.739-4.125 4.586-7.387 6.524-11.293 1.941-3.91 3.973-8.465 5.449-12.422 1.477-3.957 2.399-7.316 1.512-10.473-.891-3.16-3.59-6.121-7.68-11.953s-9.574-14.535-14.664-21.238c-5.094-6.699-9.793-11.402-12.441-15.43-2.649-4.027-3.246-7.387-4.004-10.637-.762-3.246-1.684-6.386-3.778-10.847-2.089-4.461-5.355-10.246-9.324-16.094a137 137 0 0 0-14.031-17.418c-5.387-5.664-11.48-11.078-18.434-16.219-6.957-5.14-14.773-10.004-22.496-14.004-7.726-4-15.355-7.136-21.39-9.23-6.032-2.094-10.461-3.141-13.446-3.754s-4.523-.797-5.937-.887c-1.41-.09-2.695-.09-2.66.137.031.231 1.379.688 3.269 1.484a68 68 0 0 1 7.067 3.512c2.754 1.57 5.832 3.57 9.015 5.895a134 134 0 0 1 9.731 7.836c3.254 2.871 6.468 5.961 9.402 9.332 2.934 3.375 5.59 7.031 8.203 11.164 2.61 4.136 5.176 8.75 7.246 13.211 2.067 4.461 3.633 8.769 5.157 13.968 1.523 5.2 3.003 11.293 3.828 16.844.828 5.547 1.004 10.555 1.004 15.516s-.176 9.879-.915 15.297c-.742 5.418-2.046 11.336-3.57 16.644-1.523 5.313-3.265 10.012-5.941 15.668-2.676 5.66-6.289 12.274-10.336 18.063s-8.531 10.75-13.055 15.078c-4.527 4.332-9.098 8.031-14.035 11.359-4.941 3.332-10.25 6.289-15.309 8.781-5.054 2.493-9.859 4.52-14.535 6.118-4.679 1.597-9.234 2.765-12.328 3.515s-4.723 1.082-5.898 1.317c-1.176.238-1.895.379-1.91.129-.016-.25.667-.895 2.257-3.336 1.59-2.442 4.082-6.688 6.676-12.637 2.594-5.953 5.293-13.613 7.141-20.75 1.851-7.137 2.851-13.754 3.367-20.211s.543-12.758.062-19.016c-.476-6.258-1.46-12.476-3.031-18.199-1.57-5.723-3.722-10.957-6-15.203s-4.679-7.508-5.98-9.258-1.5-1.988-1.387-2.14c.109-.153.535-.219 2.297-.961 1.762-.743 4.863-2.161 8.09-4.395a44.2 44.2 0 0 0 9.367-8.816c2.785-3.539 5-7.575 6.57-12.328 1.567-4.754 2.492-10.231 2.399-15.403-.094-5.168-1.2-10.031-3.817-15.246-2.617-5.219-6.738-10.789-10.863-15.109-4.125-4.324-8.246-7.403-13.703-10.567s-12.242-6.418-18.879-9a140 140 0 0 0-18.82-5.828 144 144 0 0 0-13.457-2.449c-2.844-.379-3.614-.395-3.52-.223.094.168 1.047.524 3.258 1.575a128 128 0 0 1 9.285 4.921c3.605 2.118 7.348 4.598 10.828 7.274 3.485 2.68 6.703 5.551 9.336 8.402 2.633 2.852 4.68 5.68 6.16 8.528 1.477 2.851 2.391 5.726 2.762 8.531.371 2.808.195 5.551-.781 8.793-.981 3.242-2.766 6.984-5.203 10.051-2.438 3.07-5.528 5.464-9.227 7.703-3.699 2.242-8.008 4.332-12.902 6.117-4.899 1.785-10.379 3.262-15.973 4.285s-11.293 1.59-17.523 1.902c-6.231.313-12.989.375-18.586.176-5.594-.199-10.028-.664-12.532-.922-2.507-.258-3.089-.316-3.23-.105-.137.211.168.691.867 1.758.699 1.066 1.789 2.722 2.992 4.328a73 73 0 0 0 3.285 4.043c.778.883 1.024 1.097 1.016 1.312-.008.219-.269.434-1.992 1.539-1.727 1.11-4.91 3.11-8.348 5.539-3.441 2.434-7.133 5.297-10.027 7.758a90 90 0 0 0-6.176 5.75c-1.191 1.227-1.484 1.617-1.918 1.805-.433.183-1.008.164-2.773.015-1.762-.152-4.707-.429-7.922-.57-3.211-.137-6.692-.137-9.738.047a68 68 0 0 0-7.352.848c-1.691.293-2.461.511-2.188.941.274.426 1.583 1.063 3.024 1.981 1.437.918 3.004 2.113 4.668 3.625a53 53 0 0 1 5.027 5.265c1.602 1.926 3.035 3.949 4.059 5.778 1.023 1.828 1.633 3.46 1.949 4.71.313 1.254.336 2.125.336 2.676-.004.551-.027.785-.102.805-.074.019-.195-.18-.937-.914a45 45 0 0 0-3.918-3.422 53 53 0 0 0-6.461-4.309 45.5 45.5 0 0 0-7.418-3.324c-2.512-.855-5.012-1.445-7.449-1.672-2.438-.23-4.809-.097-7.117.414-2.305.512-4.547 1.403-6.996 2.707-2.45 1.309-5.102 3.028-7.789 4.688-2.684 1.66-5.399 3.265-8.278 4.637s-5.926 2.507-8.558 3.355c-2.629.848-4.848 1.402-6.469 1.711-1.625.309-2.656.375-3.461.332s-1.383-.195-1.86-.434c-.48-.242-.863-.566-1.128-1.058-.266-.488-.418-1.141-.485-1.746-.062-.602-.043-1.156-.125-1.805a10.6 10.6 0 0 0-.543-2.172 15 15 0 0 0-1.121-2.429c-.472-.825-1.051-1.637-1.851-2.813-.801-1.18-1.825-2.715-2.661-4.281a28 28 0 0 1-1.914-4.5c-.433-1.332-.648-2.391-.746-3.539-.101-1.145-.086-2.375.239-3.61.324-1.23.953-2.461 2.652-5.093 1.695-2.633 4.461-6.668 7.324-10.918 2.859-4.246 5.82-8.707 9.684-14.391a1564 1564 0 0 1 13.359-19.305c4.723-6.715 9.402-13.238 14.449-19.488 5.047-6.246 10.461-12.215 16.27-18.207 5.808-5.996 12.008-12.012 18.18-17.32 6.171-5.309 12.308-9.911 16.828-12.993 4.515-3.085 7.406-4.656 9.175-5.542 1.77-.883 2.418-1.083 2.735-.762.312.324.297 1.172.437 2.109.137.938.43 1.969.754 2.832s.676 1.555 1.008 2.094.637.922.875 1.184.41.398.719.191c.304-.207.754-.762 2.508-3.07 1.754-2.309 4.816-6.368 8.898-10.676 4.086-4.309 9.195-8.863 14.336-12.68 5.137-3.816 10.309-6.894 16.309-10.156s12.832-6.707 20.558-9.942c7.723-3.23 16.34-6.246 23.293-8.367a200 200 0 0 1 15.156-4.004c2.911-.644 3.434-.707 3.496-.523.059.187-.339.617-1.89 2.574s-4.25 5.442-6.625 8.488c-2.375 3.047-4.418 5.657-7.285 8.715-2.864 3.063-6.551 6.567-10.086 9.184-3.535 2.613-6.922 4.34-10.461 5.754s-7.231 2.523-10.922 3.91c-3.695 1.383-7.387 3.043-10.402 4.676-3.016 1.633-5.356 3.23-7.262 4.832-1.91 1.601-3.387 3.199-4.219 4.265-.836 1.063-1.027 1.59-.785 1.727.242.133.914-.129 2.918-.688a128 128 0 0 1 9.418-2.203c4.086-.793 8.914-1.531 13.809-2.07s9.847-.879 14.57-1.602c4.726-.722 9.219-1.832 13.433-3.8 4.215-1.969 8.157-4.801 11.512-7.938 3.352-3.14 6.121-6.586 7.656-8.605 1.536-2.016 1.84-2.602 2.434-2.883.598-.281 1.492-.262 5.34-.246 3.851.015 10.656.027 18.461.894 7.804.868 16.609 2.59 27.078 5.731 10.465 3.137 22.601 7.691 33.371 13.191 10.766 5.496 20.168 11.938 27.742 18.684 7.57 6.746 13.317 13.797 18.406 21.457 5.094 7.66 9.532 15.93 12.188 23.238 2.656 7.313 3.523 13.668 3.785 19.215.262 5.551-.086 10.293-.957 14.734-.871 4.438-2.262 8.575-3.918 12.446-1.652 3.875-3.566 7.484-4.281 12.101-.715 4.613-.231 10.231 3.027 15.996 3.258 5.762 9.289 11.668 15.57 17.762 6.278 6.094 12.801 12.371 16.079 16.559 3.277 4.183 3.308 6.277 3.476 8.492s.477 4.554.586 6.262c.106 1.71.016 2.785.137 3.769.125.984.461 1.879.863 2.973a38 38 0 0 1 1.367 4.476c.508 2.094 1.063 4.985 1.496 7.895.43 2.906.739 5.832.922 7.969.184 2.14.246 3.492.278 4.601.031 1.106.031 1.969.308 2.078.274.106.828-.539 2.77-2.465 1.937-1.921 5.261-5.121 8.984-9.246s7.848-9.172 11.68-14.816c3.832-5.649 7.371-11.895 10.816-19.344a194 194 0 0 0 9.461-24.91c2.664-8.816 4.633-17.805 5.801-26.695 1.172-8.895 1.539-17.696 1.234-27.328-.308-9.633-1.293-20.098-3.324-30.067-2.031-9.972-5.109-19.449-9.902-29.539s-11.301-20.793-17.473-29.105c-6.168-8.309-12-14.227-18.687-19.864-6.684-5.636-14.223-10.988-21.102-15.293-6.879-4.308-13.094-7.57-18.512-10.062a139 139 0 0 0-14.164-5.602c-4.133-1.383-7.777-2.429-9.601-2.953-1.825-.523-1.825-.523-2.184-.629m0 0"/><path fill="#fff" d="M107.746 365.266c1.184 1.121 3.559 3.363 5.84 5.093 2.285 1.731 4.484 2.95 5.734 3.645 1.254.695 1.559.871 1.969.871.414 0 .938-.176 1.981-.48a55 55 0 0 1 4.539-1.129c1.925-.395 4.211-.743 6.332-1.078s4.078-.665 5.863-1.153c1.785-.492 3.394-1.144 4.844-1.808 1.445-.665 2.73-1.336 3.511-1.926.786-.586 1.067-1.086 1.133-1.598s-.086-1.035-.445-1.504c-.359-.465-.926-.879-1.754-1.25-.824-.371-1.914-.695-2.805-.945-.894-.25-1.59-.426-2.437-.348-.848.074-1.852.403-3.328.805-1.481.402-3.442.879-5.539 1.391-2.102.511-4.34 1.058-5.864 1.382-1.523.328-2.332.434-2.929.5-.598.067-.989.086-.891-.074.098-.164.684-.512 2-1.371s3.363-2.23 5.301-3.668a114 114 0 0 0 4.863-3.851c1.098-.915 1.469-1.239 1.543-1.708.078-.468-.141-1.078-.402-1.71a18 18 0 0 0-.891-1.872c-.328-.585-.676-1.109-1.207-1.238-.535-.133-1.254.129-1.926.27-.676.144-1.304.164-2.219.449-.914.281-2.113.824-4.695 2.281s-6.551 3.828-9.953 5.617a90 90 0 0 1-7.82 3.653c-1.59.656-1.938.754-1.985.933-.05.18.2.442.325.571.125.132.125.132 1.312 1.25m0 0"/><path fill="#01143e" d="M102.891 323.02c-.082.093-.254.277-.645.785a20 20 0 0 0-1.531 2.261 11.8 11.8 0 0 0-1.215 3.008 11 11 0 0 0-.293 3.215c.063 1.023.277 1.949.652 2.75.379.797.918 1.477 1.61 1.961.691.484 1.539.777 2.5.906a7.8 7.8 0 0 0 3.086-.183c1.047-.285 2.062-.825 3.136-1.641a15.4 15.4 0 0 0 3.211-3.285c.993-1.375 1.836-3.039 2.477-4.762.637-1.723 1.07-3.508 1.23-5.129.161-1.625.055-3.086-.461-4.363-.515-1.277-1.441-2.371-2.586-3.184-1.144-.816-2.515-1.355-4.078-1.664-1.562-.308-3.316-.383-5.109-.316-1.793.07-3.621.285-5.27.578-1.644.293-3.105.66-4.214.977s-1.864.578-2.411.8a7.4 7.4 0 0 0-1.168.586c-.285.176-.515.344-.414.461.098.114.532.176 1.145.332.617.153 1.418.399 2.418.821 1 .425 2.199 1.023 3.309 1.625 1.105.601 2.121 1.199 2.851 1.683a14 14 0 0 1 1.457 1.094c.281.238.391.348.43.426.039.074.004.121-.012.144-.019.024-.019.024-.105.114m0 0"/><path fill="#fff" d="M174.289 281.844c-.672-.446-1.164-.801-1.68-.739-.515.063-1.054.54-3.136 1.879-2.086 1.336-5.719 3.539-8.641 5.563-2.926 2.023-5.141 3.867-7.387 5.824-2.246 1.953-4.523 4.016-5.894 5.383-1.367 1.371-1.828 2.047-2.121 2.711-.293.66-.418 1.305-.047 1.398.371.094 1.23-.371 3.031-1.371s4.539-2.539 7.371-3.969 5.754-2.753 8.879-4.168a8118 8118 0 0 1 9.199-4.171c2.754-1.246 4.942-2.231 6.555-2.875 1.617-.649 2.664-.957 2.695-1.25.028-.289-.957-.567-2.203-1.016-1.246-.445-2.754-1.059-3.93-1.637a23 23 0 0 1-2.691-1.562M237.766 219.527c.093.231.277.692.57 1.864.293 1.168.691 3.047.906 5.507.215 2.461.246 5.508-.152 8.356-.399 2.844-1.231 5.492-2.278 7.863-1.046 2.367-2.308 4.461-4.402 7.031-2.09 2.571-5.015 5.614-7.859 8.184a71 71 0 0 1-8.297 6.449c-2.676 1.785-5.262 3.262-6.785 4.153-1.524.894-1.985 1.203-1.723 1.355s1.246.152 3.602.152c2.351 0 6.078 0 9.738-.214 3.664-.215 7.262-.645 10.773-1.461 3.508-.817 6.922-2.016 10.34-3.786 3.414-1.769 6.832-4.109 9.371-6.769a23.9 23.9 0 0 0 5.2-8.465c1-2.816 1.339-5.461 1.046-8.047s-1.214-5.109-2.878-7.754c-1.661-2.648-4.063-5.418-6.879-7.816-2.813-2.402-6.047-4.434-7.848-5.508-1.797-1.078-2.168-1.203-2.352-1.262-.183-.062-.183-.062-.093.168m0 0"/><path fill="#01143e" d="M169.055 249.457c-.172.141-.524.426-1.84 1.621a399 399 0 0 0-6.016 5.606 303 303 0 0 0-7.367 7.222 254 254 0 0 0-6.793 7.211c-2.129 2.344-4.125 4.621-5.922 6.867a126 126 0 0 0-4.332 5.782c-.933 1.32-1.203 1.746-1.406 2.179-.203.43-.348.864-.172.883.176.016.664-.387 1.746-1.242 1.082-.856 2.758-2.16 6.266-4.504 3.511-2.344 8.851-5.73 13.961-8.812 5.109-3.086 9.984-5.872 13.011-7.497 3.028-1.621 4.211-2.085 5.09-2.425.875-.336 1.446-.551 1.606-1.016.164-.461-.082-1.168-.328-2.09-.247-.926-.493-2.062-.579-2.972a8.5 8.5 0 0 1 .071-2.122c.074-.539.152-.937.508-1 .351-.062.984.215 2.007.606 1.024.394 2.438.902 3.836 1.269 1.403.372 2.786.602 3.801.727 1.016.121 1.664.137 2.238-.164.579-.301 1.086-.914 2.313-2.274 1.226-1.359 3.168-3.46 4.75-5.535 1.578-2.074 2.797-4.117 3.57-5.64.774-1.524 1.098-2.524 1.231-3.309.129-.785.062-1.348.457-1.797.39-.445 1.238-.769 2.668-1.492a74 74 0 0 0 5.113-2.875c1.68-1.043 3.035-2.012 3.891-2.687.851-.68 1.207-1.063.968-1.301-.238-.238-1.07-.332-3.211-.274-2.14.059-5.589.27-8.968.856-3.379.582-6.688 1.539-9.731 2.543-3.047 1-5.832 2.043-8.207 2.98-2.371.934-4.328 1.762-5.703 2.578-1.379.817-2.172 1.625-2.746 2.176-.57.551-.926.84-1.301.789-.379-.054-.777-.457-1.332-1.07a36 36 0 0 1-1.824-2.188 20 20 0 0 1-1.293-1.914c-.316-.531-.531-.945-.785-.855-.254.094-.547.695-.875 1.633-.332.937-.699 2.215-.864 3.523a12.5 12.5 0 0 0 .126 3.863 11.4 11.4 0 0 0 1.113 3.137c.445.832.91 1.402 1.219 1.774.308.371.46.543.472.691.008.148-.125.273-.195.336-.067.062-.067.062-.242.203m0 0"/>
</symbol>
</svg>
