<svg xmlns="http://www.w3.org/2000/svg" viewBox="82 151 433 301"><symbol id="kiekkokingit" viewBox="82 151 433 301"><path fill="#241a19" d="M486.176 434.281v-66.336l-24.93-24.929 24.926-14.391v-166.73l-66.809 38.574-34.078-19.676-32.832 18.957-52.562-29.965-52.508 30.695-34.145-19.714-32.535 18.781-68.84-39.746v165.316l29.61 17.094-30.184 30.184V434.5h97.91v-20.207l10.434-9.117v29.105h160.012v-28.336l10.105 10.106v18.23Zm0 0"/><path fill="#251919" d="M485.938 434.105v-63.539l-24.93-24.929 24.926-14.391V161.719l-66.809 38.574-34.078-19.676-32.832 18.957-52.563-29.965-52.507 30.696L213 180.59l-32.531 18.785-68.844-39.746v168.824l29.609 17.098-30.183 30.183v58.59h97.91v-20.207l10.434-9.113v29.101H379.41V405.77l10.102 10.105v18.23Zm0 0"/><path fill="none" stroke="#827d81" stroke-linecap="square" stroke-width="7.514" d="M485.938 434.105v-63.539l-24.93-24.929 24.926-14.391V161.719l-66.809 38.574-34.078-19.676-32.832 18.957-52.563-29.965-52.507 30.696L213 180.59l-32.531 18.785-68.844-39.746v168.824l29.609 17.098-30.183 30.183v58.59h97.91v-20.207l10.434-9.113v29.101H379.41V405.77l10.102 10.105v18.23Zm0 0"/><path fill="#e2b943" d="M308.734 271.016h45.059v51.179l61.723-35.636v-15.543h45.464v39.757l-48.066 27.75 48.535 48.539v22.27h-46.187v-8.23l-39.141-39.141-22.496 12.988v33.918h-44.91V272.672Zm0 0"/><path fill="none" stroke="#976f00" stroke-linecap="square" stroke-width="7.514" d="M308.734 271.016h45.059v51.179l61.723-35.636v-15.543h45.464v39.757l-48.066 27.75 48.535 48.539v22.27h-46.187v-8.23l-39.141-39.141-22.496 12.988v33.918h-44.91V272.672Zm0 0"/><path fill="#976f00" d="M290.16 271.047h-45.055v51.18l-61.722-35.637v-15.543h-45.465v39.758l48.066 27.75-48.535 48.539v22.269h46.188v-8.234l39.14-39.137 22.496 12.988v33.915h44.911V272.703Zm0 0"/><path fill="none" stroke="#5e490d" stroke-linecap="square" stroke-width="7.514" d="M290.16 271.047h-45.055v51.18l-61.722-35.637v-15.543h-45.465v39.758l48.066 27.75-48.535 48.539v22.269h46.188v-8.234l39.14-39.137 22.496 12.988v33.915h44.911V272.703Zm0 0"/><path fill="#976f00" d="m308.777 205.535 43.5 25.113 32.657-18.855 34.144 19.715 41.938-24.211v45.144H308.777Zm0 0"/><path fill="none" stroke="#5e490d" stroke-linecap="square" stroke-width="7.514" d="m308.777 205.535 43.5 25.113 32.657-18.855 34.144 19.715 41.938-24.211v45.144H308.777Zm0 0"/><path fill="#e2b943" d="m290.184 205.602-43.5 25.113-32.657-18.856-34.144 19.715-41.938-24.215v45.149h152.239Zm0 0"/><path fill="none" stroke="#976f00" stroke-linecap="square" stroke-width="7.514" d="m290.184 205.602-43.5 25.113-32.657-18.856-34.144 19.715-41.938-24.215v45.149h152.239Zm0 0"/></symbol></svg>