<svg xmlns="http://www.w3.org/2000/svg" viewBox="47 160 499 469"><symbol id="logo_black_white" viewBox="47 160 499 469"><path d="M46.887 628.27c.14-.141.418-.418 5.484-5.438 5.07-5.023 14.934-14.793 21.715-21.414s10.48-10.102 14.898-13.578c4.414-3.477 9.551-6.957 14.871-10.086 5.325-3.129 10.829-5.91 16.321-8.484 5.492-2.575 10.972-4.942 17.035-7.219 6.062-2.274 12.707-4.457 20.848-6.746s17.773-4.688 27.359-6.715c9.586-2.031 19.125-3.692 29.434-5.137 10.308-1.445 21.386-2.672 31.273-3.586s18.582-1.512 27.762-1.898c9.179-.387 18.84-.559 28.937-.43 10.098.133 20.629.566 31.637 1.219 11.012.652 22.504 1.519 33.262 2.765 10.761 1.247 20.789 2.864 30.265 4.625 9.477 1.762 18.403 3.668 27.45 6.004 9.046 2.34 18.218 5.106 26.929 8.243a266 266 0 0 1 24.567 10.273c7.609 3.637 14.586 7.406 20.554 11.266 5.965 3.863 10.93 7.82 18.719 15.254s18.41 18.343 23.777 23.867c5.371 5.519 5.489 5.648 5.536 5.543.042-.11.007-.457-7.051-45.715a823782 823782 0 0 0-28.207-180.59c-7.063-45.164-7.098-45.324-7.028-45.402.067-.082.243-.082 3.215-.082h11.66c2.922 0 2.989 0 3.02-.024.031-.027.023-.082-1.91-11.609-1.93-11.528-5.789-34.528-7.719-46.035-1.93-11.508-1.934-11.524-1.941-11.532-.004-.007-.02-.007-13.36-.007h-53.347c-13.34 0-13.356 0-13.364-.008-.008-.012-.008-.028-.008-2.66v-10.512c0-2.629 0-2.637-.007-2.652-.008-.016-.024-.04-9.578-8.165l-38.192-32.46c-9.551-8.118-9.562-8.129-9.57-8.129-.012 0-.02.011-2.789 2.773-2.766 2.766-8.289 8.281-11.078 11.066-2.786 2.786-2.84 2.836-2.868 2.833-.023-.008-.023-.075-.023-5.04 0-4.96.004-24.675 0-24.679 0-.008 0-.02-.012-.035-.011-.016-.035-.032-9.508-8.039-9.472-8.004-28.394-23.997-37.859-31.997s-9.473-8.007-9.484-8.007c-.008.004-.02.015-9.66 7.945-9.645 7.934-28.914 23.789-38.555 31.719s-9.649 7.933-9.656 7.945c-.004.008-.004.023-.004 5.023v19.997c0 5 0 5.011-.004 5.015-.004 0-.016-.008-2.66-2.644-2.649-2.641-7.926-7.918-10.571-10.559s-2.656-2.648-2.664-2.648c-.011 0-.023.011-9.422 7.687-9.398 7.68-28.179 23.027-37.578 30.703-9.394 7.676-9.402 7.684-9.406 7.696-.004.007-.004.019-.004 3.023v12.004c0 3.004 0 3.015-.008 3.019-.008.008-.023.008-11.316.008h-45.168c-11.297 0-11.313 0-11.328.008-.012.008-.02.027-2.242 10.906l-8.871 43.496c-2.215 10.879-2.219 10.903-2.211 10.914.007.012.031.012 1.656.012h6.492c1.641 0 1.695 0 1.715.039.015.039-.004.113-8.391 46.317-8.39 46.199-25.148 138.523-33.531 184.699-8.379 46.176-8.383 46.195-8.383 46.203 0 .004.004-.004.004-.008.004-.004 0-.004.141-.144Zm0 0"/><path fill="#fff" d="M115.703 305.758H159.5c9.109 0 10.27 0 11.785.109 1.52.11 3.395.328 5.227.891s3.613 1.469 5.258 2.515c1.64 1.047 3.144 2.235 4.3 3.625 1.157 1.395 1.973 2.989 2.614 4.364s1.109 2.531 1.343 3.859c.235 1.328.235 2.828-1.562 18.875-1.801 16.051-5.399 46.649-7.301 62.762-1.898 16.109-2.102 17.734-2.492 19.39a21.9 21.9 0 0 1-1.856 5.047c-.882 1.703-2.074 3.422-3.464 5.098-1.395 1.672-2.989 3.297-4.68 4.844-1.688 1.547-3.473 3.015-5.848 4.39-2.379 1.375-5.351 2.657-16.394 6.383-11.039 3.723-49.262 16.063-49.27 16.063-.008.004-.023.011-.031 0-.008-.008-.008-.032 3.707-22.508 3.711-22.481 11.137-67.418 14.848-89.895s3.714-22.488 3.703-22.496c-.008-.004-.028-.004-1.317-.004h-5.125c-1.281 0-1.312-.004-1.308-.011 0-.008.004-.02.664-3.899s1.976-11.617 2.633-15.496c.66-3.875.66-3.891.66-3.898 0-.004 0-.008.109-.008M200.336 305.711h42.766c9.113 0 10.703 0 12.457.164 1.75.164 3.66.492 5.429 1a23.2 23.2 0 0 1 4.961 2.07c1.563.875 3.067 1.938 4.239 3.032 1.171 1.097 2.019 2.222 2.691 3.503a14.5 14.5 0 0 1 1.422 4.125c.25 1.407.25 2.782.133 10.172-.114 7.395-.348 20.801-.512 28.012-.16 7.215-.25 8.231-.449 9.293-.2 1.059-.508 2.164-1.106 3.336-.597 1.172-1.48 2.41-2.453 3.535-.976 1.129-2.035 2.145-3.055 2.942-1.019.793-1.992 1.367-2.988 1.746-.992.375-2.012.55-2.82.64-.809.086-1.41.086-1.75.086-.336 0-.414 0-.426.071s.043.207 3.313 8.785c3.269 8.574 9.757 25.582 13.011 34.113 3.258 8.531 3.285 8.582 3.258 8.605-.027.028-.109.028-5.73.422-5.625.395-16.786 1.184-22.426 1.59-5.645.406-5.766.426-5.844.379-.074-.051-.109-.172-2.508-6.977l-9.57-27.085c-2.402-6.797-2.441-6.907-2.461-6.856s-.02.262-.66 7.285c-.641 7.024-1.918 20.863-2.555 27.817-.637 6.953-.629 7.027-.664 7.062-.039.035-.113.035-5.434.758s-15.882 2.168-21.195 2.898c-5.308.727-5.367.743-5.394.707-.028-.035-.028-.117 1.941-18.871 1.969-18.75 5.902-56.168 7.871-74.902s1.969-18.781 1.945-18.805c-.023-.023-.07-.023-1.351-.023h-5.094c-1.289 0-1.351 0-1.383-.024-.031-.027-.027-.078.352-3.5l1.512-13.632c.379-3.418.382-3.45.394-3.465.012-.012.035-.012.043-.008.012 0 .012.004.09.004ZM287.773 305.852h45.352c9.039 0 9.168 0 9.238.093.071.094.086.282 4.199 21.641 4.114 21.359 12.329 63.887 16.446 85.199 4.117 21.313 4.14 21.414 4.105 21.465-.031.047-.121.047-5.23-.262-5.113-.312-15.246-.933-20.344-1.25-5.098-.312-5.16-.32-5.191-.367-.032-.047-.032-.133-.418-2.449-.383-2.317-1.149-6.86-1.535-9.18-.391-2.324-.399-2.422-.465-2.472-.067-.051-.192-.051-3.399-.188s-9.5-.414-12.683-.551c-3.18-.14-3.246-.14-3.274-.082-.027.055-.015.164-.293 2.457s-.84 6.77-1.121 9.078c-.285 2.309-.285 2.454-.394 2.524-.11.074-.332.074-5.563.074h-20.672c-5.207 0-5.535.004-5.511-.074.019-.078.062-.231 2.945-17.883 2.883-17.648 8.609-52.793 11.496-70.43 2.887-17.636 2.934-17.761 2.863-17.816-.07-.055-.258-.039-2.121-.031-1.863.011-5.398.011-7.25.011-1.855 0-2.152 0-2.152-.062 0-.063 0-.188.121-3.414.117-3.223.355-9.543.476-12.731.118-3.191.118-3.25.149-3.277.027-.027.086-.023.117-.023.027.003.027 0 .109 0M373.816 305.973h38.883c9.781 0 9.934 0 10.024.089.089.09.109.266.496 3.559.39 3.293 1.14 9.703 1.515 12.973.379 3.269.379 3.402.332 3.468-.043.067-.132.067-5.207.067h-20.254c-5.109 0-5.265 0-5.335.098-.071.097-.055.293.296 4.175.356 3.887 1.047 11.457 1.407 15.301.355 3.84.379 3.953.433 4.008.055.055.145.055 4.364.375 4.222.32 12.574.961 16.781 1.281 4.211.321 4.277.321 4.32.414.043.094.067.281.449 3.77.379 3.484 1.121 10.269 1.504 13.722.379 3.454.403 3.575.336 3.637-.066.059-.219.059-4.34-.18-4.121-.238-12.203-.718-16.285-.957-4.082-.242-4.16-.242-4.191-.171-.032.07-.016.21.937 11.433.957 11.219 2.848 33.52 3.797 44.723.945 11.207.945 11.316.875 11.34s-.211-.039-5.437-.649a5353 5353 0 0 0-20.735-2.344c-5.203-.578-5.297-.578-5.343-.64s-.047-.188-1.606-21.77-4.68-64.617-6.242-86.144c-1.559-21.531-1.563-21.559-1.547-21.571.012-.011.043-.007.059-.007zM439.938 305.711h42.242c10.609 0 10.754 0 10.847.09.094.086.137.261.848 4.144.711 3.887 2.086 11.477 2.793 15.34.703 3.867.734 4.008.703 4.078s-.125.071-3.07-.031c-2.946-.105-8.739-.312-11.668-.414-2.93-.102-2.996-.102-3.028-.047-.035.055-.035.164 3.497 22.629 3.535 22.469 10.597 67.285 14.14 89.754 3.539 22.465 3.555 22.574 3.524 22.605-.032.032-.11-.019-5.36-1.746a8894 8894 0 0 0-20.906-6.836c-5.242-1.703-5.305-1.703-5.336-1.773s-.031-.211-3.16-21.059c-3.125-20.851-9.383-62.406-12.516-83.222-3.133-20.817-3.144-20.895-3.203-20.934-.062-.039-.172-.039-3.133-.269-2.961-.235-8.769-.7-11.707-.934-2.933-.231-2.996-.231-3.039-.293-.043-.063-.066-.188-.582-3.688-.519-3.5-1.527-10.378-2.035-13.847-.508-3.473-.516-3.539-.496-3.563.016-.023.059-.004.082.008.023.008.02.008 10.563.008m0 0"/><path d="M148.176 326.859h7c1.508 0 2.015 0 2.59.153a4.5 4.5 0 0 1 1.769.953 5.3 5.3 0 0 1 1.317 1.832c.3.687.433 1.394.421 2.277-.011.883-.168 1.946-2.281 16.543a35768 35768 0 0 1-8.304 57.195c-2.126 14.465-2.301 15.258-2.668 16.122-.364.859-.918 1.789-1.77 2.586-.852.792-2 1.457-4.324 2.23s-5.821 1.66-7.617 2.121c-1.801.461-1.903.5-1.95.465-.043-.031-.027-.133 2.586-17.211 2.61-17.082 7.817-51.141 10.426-68.18 2.606-17.043 2.613-17.066 2.629-17.078a.1.1 0 0 1 .062-.008zM235.652 324.836h5.965c1.68 0 2.188 0 2.742.094.555.093 1.153.281 1.625.629.477.351.832.859 1.02 1.386.187.532.211 1.086-.024 6.301-.23 5.215-.718 15.094-.984 20.309s-.308 5.769-.387 6.289c-.078.519-.187 1.004-.429 1.414-.246.41-.621.738-1.11 1.004-.484.265-1.082.465-1.836.574-.75.113-1.66.133-3.449.144-1.793.008-7.148.004-7.168.004-.023.004-.07.008-.09-.031-.023-.035-.023-.109.411-6.457.433-6.348 1.304-18.965 1.738-25.293s.433-6.363.453-6.375c.019-.012.059-.004.078.004s.02.008 1.445.008Zm0 0"/><path fill="#fff" d="M94.254 478.109c.012-.078.035-.23.113-.336.078-.105.211-.16 2.988-1.324 2.778-1.168 8.2-3.445 14.184-5.687s12.531-4.453 20.676-6.75c8.14-2.301 17.875-4.688 27.918-6.895 10.047-2.211 20.398-4.246 30.133-5.879 9.734-1.636 18.851-2.875 29.117-4.199 10.265-1.328 21.679-2.742 35-3.582 13.316-.84 28.539-1.105 41.195-1.238 12.652-.133 22.742-.133 34.024.488 11.285.617 23.761 1.855 36.683 3.359s26.281 3.27 38.399 5.356c12.113 2.086 22.98 4.484 35.05 7.687 12.067 3.2 25.332 7.203 35.848 10.555 10.52 3.352 18.289 6.055 22.305 7.449 4.019 1.395 4.285 1.485 4.449 1.684.168.199.234.508 2.566 14.738 2.336 14.231 6.938 42.387 9.254 56.586 2.317 14.203 2.348 14.453 2.207 14.391-.14-.063-.453-.438-5.703-3.434-5.246-3-15.43-8.617-25.875-13.195s-21.156-8.113-26.906-10.016c-5.754-1.898-6.551-2.164-13.231-3.844-6.683-1.679-19.25-4.773-32.921-7.425-13.672-2.653-28.45-4.864-43.317-6.672-14.867-1.813-29.824-3.227-43.762-3.805-13.937-.574-26.859-.309-39.425.18a916 916 0 0 0-36.594 2.121c-11.813.926-23.231 2.078-34.734 3.535s-23.098 3.227-34.778 5.656c-11.683 2.434-23.453 5.528-34.207 8.707-10.75 3.184-20.484 6.453-29.336 9.946-8.847 3.492-16.812 7.207-22.566 10.125-5.75 2.914-9.289 5.039-11.164 6.175-1.875 1.141-2.086 1.301-2.172 1.262-.09-.035-.059-.269 2.39-14.578 2.446-14.305 7.313-42.684 9.747-56.875 2.429-14.187 2.429-14.187 2.445-14.266m0 0"/><path d="M318.871 397.598h8.731c2.207 0 2.269 0 2.289-.028.019-.027 0-.082-1.25-8.965-1.25-8.886-3.727-26.597-4.973-35.515-1.246-8.922-1.258-9.047-1.273-9.012-.02.035-.043.231-1 9.172s-2.848 26.629-3.793 35.477c-.946 8.851-.946 8.867-.942 8.875.008.003.024 0 .031 0 .008-.004.004-.004 2.18-.004M117.332 493.941l2.344 8.063 5.914-2.063-1.313-4.125 3.661-1.031 5.914 18.75-3.286 1.219 1.5 5.062 12.297-3.843-1.504-4.594-3.097.75-5.817-18.844 4.785-1.223 1.129 4.036 5.817-2.157-3.004-8.16ZM170.551 479.031l.844 5.063 3.191-.75 3.004 15.941 1.316 2.531 4.41 3.469 3.754.563 4.602-.563 2.816-1.781 2.719-2.625 1.598-3.563.187-3.281-2.441-14.629 2.254-.562-.938-5.156-10.703 2.25.75 4.593 3.285-.656 2.348 14.16.094 2.906-1.219 1.875-2.254 1.407-2.91.093-3.004-1.406-1.125-3.094-2.723-13.222 2.817-.563-1.032-5.156ZM229.027 469.562l.282 4.594 4.132-.281 1.5 19.504-3.097.469.562 4.406 10.703-1.125-.281-4.594-2.723.184-.468-6.657 4.504-.468 2.816.656 1.125 2.625 1.41 3.844.656 3.472 7.883-.281-.093-5.066-2.629.281-1.032-3.469-.843-2.062-1.125-1.688-2.161-.375 2.348-2.062 2.25-3.094.188-3.844-1.313-3.843-4.601-2.813ZM287.789 466l.188 3.938h2.156v20.156l-2.156.094v4.316l9.574-.281.094-4.317h-1.692L295.766 475l12.578 19.785 6.383.188.281-25.035h2.722l-.093-3.844-10.985-.094.188 3.938h2.722l.094 16.406L296.891 466ZM347.203 491.875l10.699-23.531 6.477.656 6.101 24.848 2.348.468-.187 5.063-10.606-1.031.469-4.688 2.91.281-1.598-5.253-8.632-1.032-2.067 4.594 2.723.469-.281 4.785-10.985-1.313.75-4.691ZM403.809 474.441l11.812 2.387-1.328 5.172-2.652-.398-2.657 13.128-.359 3.832 2.617 2.399 4.113.531 3.055-2.121 3.848-15.648-3.317-1.059 1.192-4.641 11.285 3.313-1.195 4.512-2.524-.797-3.715 15.777-2.656 3.981-3.316 1.589-6.106.664-5.672-2.226-3.289-4.27-.703-5.019 3.422-15.402-3.316-.797ZM476.172 497.035l1.691.844-.941 4.406-6.383-.75v-4.687l-2.344-2.157-3.191-.562-2.254 1.5.188 3.375 2.816 2.812 4.41 2.813 3.379 3.281.187 4.594-2.156 4.312-2.629 2.344-4.601.844-6.196-1.125-4.41-4.594-1.031-3.562-1.316-.938 1.035-3.656 6.476 1.5-1.129 3.375 2.067 2.062 4.035 1.875 2.535-1.031.188-3-1.782-2.531-3.57-2.813-3.754-3.843-1.031-4.032.844-4.406 2.535-3.566 5.164-.844 6.383 1.406 3.66 2.91Zm0 0"/><path fill="#fff" d="m356.871 483.062 3.848-8.718 2.16 9.375ZM239.004 473.516l.465 6.761 5.445-.199 2.852-1.195 1.129-2.848-1.063-2.586-3.051-.73ZM305.066 241.441c0 7.016-3.046 12.704-6.808 12.704s-6.809-5.688-6.809-12.704c0-7.019 3.047-12.707 6.809-12.707s6.808 5.688 6.808 12.707M218.363 262.68h12.875V277h-12.875ZM276.902 263.078h12.879v14.188h-12.879ZM366.914 263.004h12.953v14.25h-12.953ZM282.344 241.297c0 7.015-4.117 12.703-9.199 12.703-5.083 0-9.2-5.688-9.2-12.703 0-7.02 4.117-12.707 9.2-12.707s9.199 5.687 9.199 12.707M333.867 241.254c0 7.016-4.117 12.703-9.199 12.703s-9.199-5.687-9.199-12.703 4.117-12.707 9.199-12.707 9.199 5.691 9.199 12.707m0 0"/><path d="M257.938 242.75h80.723v13.504h-80.723Z"/></symbol></svg>