<svg xmlns="http://www.w3.org/2000/svg" viewBox="82 151 433 301"><symbol id="terashaukat" viewBox="82 151 433 301"><path fill="#c86e31" d="M508.996 387.645c-26.98 20.628-80.945 61.886-143.184 81.21-62.234 19.325-132.738 16.711-174.343 9.489-41.606-7.227-54.313-19.063-60.707-25.02-6.395-5.957-6.473-6.035-6.469-6.129 0-.093.086-.207 4.355-6.461 4.266-6.254 12.715-18.648 19.036-29.101 6.32-10.449 10.511-18.961 12.613-23.231 2.105-4.273 2.121-4.304 2.109-4.328-.011-.027-.051-.047-4.594-3.242-4.546-3.199-13.605-9.57-22.335-18.551-8.731-8.984-17.137-20.574-23.422-31.769-6.282-11.196-10.442-21.992-13.45-32.348-3.011-10.352-4.867-20.266-5.753-30.707-.883-10.441-.797-21.414.132-30.355.93-8.938 2.7-15.84 4.989-21.059s5.097-8.754 6.578-10.613c1.48-1.856 1.629-2.039 1.676-2.297.043-.262-.02-.598-.524-2.887a3154 3154 0 0 0-1.937-8.68c-.481-2.152-.496-2.226-.469-2.308.027-.078.098-.164 7.98-7.399 7.883-7.234 23.578-21.613 39.746-32.257 16.165-10.641 32.801-17.543 50.059-23.473s35.133-10.883 49.469-14.07 25.133-4.602 33.453-5.309c8.316-.711 14.16-.711 21.414.707 7.258 1.414 15.93 4.246 30.445 11.063 14.512 6.812 34.867 17.609 54.16 30.441 19.289 12.832 37.52 27.699 54.422 44.07 16.903 16.375 32.481 34.25 45.133 52.035 12.656 17.789 22.391 35.489 29.652 55.77 7.262 20.277 12.051 43.137 14.45 54.586 2.398 11.445 2.406 11.48 2.39 11.508-.015.031-.05.058-.07.074-.02.012-.02.012-27.004 20.641m0 0"/><path fill="#1e2629" d="M154.363 354.922c-4.425-4.219-13.277-12.656-20.492-22.848s-12.789-22.136-16.461-33.644c-3.672-11.504-5.441-22.567-6.195-32.832s-.488-19.735.531-27.387c1.02-7.656 4.563-19.332 6.863-21.297 2.297-1.969 6.895-5.902 9.243-7.91 2.347-2.012 2.449-2.098 2.46-2.207.008-.106-.074-.231-.843-1.414-.77-1.184-2.231-3.422-3.16-5.422-.934-1.996-1.34-3.746-1.547-4.637-.207-.894-.211-.926-.203-.957.007-.035.035-.07 7.289-5.808 7.254-5.739 21.742-17.18 35.312-25.645s26.223-13.953 41.27-19.129c15.043-5.18 32.476-10.047 45.707-13.23 13.23-3.188 22.258-4.692 29.601-5.399 7.344-.707 13.008-.621 19.602.797 6.594 1.414 14.117 4.16 25.488 9.469s26.594 13.187 42.078 23.32c15.489 10.133 31.239 22.52 48.094 38.723 16.855 16.199 34.809 36.211 47.605 52.914 12.793 16.703 20.426 30.094 26.372 42.734 5.945 12.641 10.199 24.532 13.335 34.864 3.133 10.332 5.149 19.109 6.161 23.523 1.011 4.41 1.027 4.457 1.011 4.492-.019.035-.062.059-10.211 8.285-10.148 8.231-30.402 24.664-50.668 38.7-20.265 14.039-40.539 25.675-58.937 34.25-18.395 8.574-34.918 14.078-51.438 18.335-16.519 4.254-33.039 7.258-47.808 9.071-14.766 1.816-27.781 2.441-41.234 2.316-13.458-.125-27.348-1-41.551-3.191-14.207-2.192-28.723-5.696-39.192-9.199-10.465-3.504-16.879-7.008-20.152-8.797-3.27-1.789-3.402-1.864-3.426-1.977-.023-.117.059-.269 3.453-5.238 3.399-4.973 10.106-14.754 15.274-23.41 5.172-8.653 8.801-16.176 10.961-20.711s2.851-6.086 3.199-7.864.348-3.777-.469-12.164c-.812-8.382-2.441-23.152-3.738-32.015-1.297-8.867-2.266-11.828-2.758-13.328-.488-1.496-.504-1.528-.516-1.524-.011 0-.023.035-1.785 3.035-1.761 3-5.273 8.961-7.715 14.207-2.441 5.247-3.816 9.774-4.531 12.141s-.773 2.57-.902 2.582c-.133.012-.344-.172-.445-.262-.106-.093-.106-.093-4.532-4.312m0 0"/><path fill="#c86e31" d="M367.664 331.121c-3.512-3.773-10.531-11.316-16.293-16.996s-10.266-9.496-13.738-12.219c-3.473-2.722-5.914-4.351-8.793-5.664s-6.195-2.316-13.703-4.066c-7.512-1.754-19.211-4.258-30.039-5.727-10.825-1.472-20.774-1.91-27.907-1.785s-11.453.816-13.687 1.195c-2.238.379-2.395.45-2.383.532s.191.175 1.504.953c1.316.777 3.762 2.242 5.645 3.957 1.882 1.719 3.195 3.691 4.257 5.582 1.067 1.894 1.879 3.707 2.293 4.633.414.925.43.964.418.968-.011 0-.05-.031-2.437-1.629-2.387-1.593-7.117-4.753-11.875-7.238-4.754-2.488-9.535-4.301-14.336-5.738s-9.621-2.5-13.938-3.231a117 117 0 0 0-10.703-1.316c-2.582-.187-3.941-.168-4.644-.156-.7.012-.739.012-.739-.004.004-.016.047-.047 2.629-1.274 2.582-1.23 7.7-3.652 13.711-5.332 6.008-1.675 12.91-2.605 19.528-3.07 6.613-.465 12.941-.465 19.421-.285 6.485.176 13.122.531 19.184 1.129a173 173 0 0 1 16.504 2.41c4.957.973 9.379 2.078 12.961 3.086 3.578 1.008 6.308 1.914 7.734 2.383 1.43.472 1.551.504 1.496.414-.054-.086-.289-.297-2.785-2.043-2.5-1.746-7.261-5.031-12.773-7.738-5.512-2.704-11.766-4.832-18.496-6.457-6.727-1.629-13.922-2.754-20.805-3.411-6.883-.66-13.453-.847-19.805-.566-6.351.281-12.484 1.035-18.242 2.066-5.758 1.032-11.137 2.348-16.832 4.379-5.695 2.035-11.703 4.789-16.644 7.762-4.946 2.973-8.825 6.164-11.954 9.48-3.128 3.317-5.507 6.758-7.382 10.012a57 57 0 0 0-4.407 9.555c-1.148 3.238-2.07 6.64-2.535 8.355s-.469 1.735-.476 1.735c-.004 0-.012-.016-.625-2.098-.61-2.082-1.821-6.223-2.782-10.726-.957-4.508-1.664-9.376-1.929-15.172s-.09-12.52.531-18.981c.617-6.461 1.68-12.656 3.492-18.805a87.7 87.7 0 0 1 7.504-17.828c3.125-5.566 6.805-10.601 10.164-14.156 3.356-3.555 6.383-5.637 7.906-6.68 1.524-1.043 1.543-1.046 1.543-1.039s-.015.028-1.554 1.977-4.602 5.832-6.727 9.039c-2.129 3.207-3.316 5.738-4.176 8.102-.859 2.363-1.394 4.554-1.613 6.367a20.3 20.3 0 0 0-.074 3.98c.047.731.047.746.062.742.012-.004.039-.031 1.891-1.855 1.851-1.824 5.531-5.449 8.988-8.309 3.453-2.863 6.684-4.965 9.77-6.226 3.09-1.262 6.031-1.68 8.519-1.602 2.489.074 4.524.653 6.492 1.735 1.969 1.085 3.872 2.675 5.489 4.648 1.613 1.969 2.941 4.313 4.426 7.012 1.48 2.699 3.117 5.754 4.832 8.207 1.714 2.457 3.507 4.316 5.375 5.707 1.871 1.394 3.816 2.324 5.742 2.855s3.828.664 6.129.629c2.3-.031 5-.23 7.445-.726 2.445-.5 4.633-1.297 7.543-2.469s6.539-2.723 11.848-4.445c5.312-1.727 12.3-3.629 24.359-2.348 12.059 1.285 29.18 5.754 43.629 13.144 14.445 7.387 26.215 17.7 35.598 27.235 9.378 9.535 16.371 18.297 19.691 26.304 3.316 8.008 2.961 15.266 1.059 20.352-1.903 5.09-5.352 8.012-7.653 9.027-2.301 1.02-3.453.133-4.648-.929-1.192-1.063-2.434-2.301-3.051-2.918-.621-.621-.621-.621-4.129-4.391m0 0"/><path fill="#b2b2b2" d="M156.996 193.664c-.121.082-.371.242-.504.473-.129.234-.144.539-.152 1.441-.004.902-.004 2.402.109 3.383.117.977.356 1.43.746 1.75.391.32.938.508 1.774.508.84 0 1.965-.188 3.191-.617 1.231-.43 2.559-1.102 6.008-2.684 3.449-1.578 9.02-4.066 13.07-5.543 4.051-1.48 6.586-1.949 9.278-2.199 2.691-.25 5.539-.281 8.043.015 2.5.297 4.66.922 6.851 1.989a25.9 25.9 0 0 1 6.414 4.457c2 1.894 3.785 4.175 5.836 7.394 2.055 3.219 4.375 7.371 6.488 11.836s4.016 9.246 6.004 13.516c1.993 4.269 4.071 8.031 6.461 11.015a28.3 28.3 0 0 0 7.899 6.836c2.808 1.641 5.73 2.7 8.629 3.231s5.773.531 9.867 1.019c4.094.489 9.402 1.461 14.957 2.899a137 137 0 0 1 16.855 5.574c5.512 2.234 10.731 4.801 15.578 7.676 4.844 2.879 9.313 6.062 13.555 9.515s8.258 7.176 12.172 11.196c3.918 4.019 7.734 8.336 10.895 12.527 3.16 4.195 5.664 8.262 7.492 11.848 1.832 3.586 2.992 6.691 3.582 8.265.586 1.578.609 1.629.594 1.657-.016.023-.067.027-4.161-.172-4.093-.203-12.23-.606-20.148-.43-7.918.172-15.613.922-21.715 2.113-6.102 1.188-10.605 2.817-12.906 3.645-2.301.832-2.395.871-2.406.937s.066.168 2.914 3.633c2.847 3.465 8.468 10.297 13.183 17.074s8.52 13.504 11.219 19.477 4.293 11.195 5.098 13.84c.808 2.644.832 2.711.824 2.769-.008.055-.047.098-3.492 5.407-3.446 5.308-10.301 15.882-18.047 24.203-7.746 8.324-16.379 14.39-25.922 18.929-9.543 4.536-19.992 7.539-29.379 9.731-9.387 2.191-17.711 3.566-22.062 4.289-4.348.719-4.727.785-4.696.879.035.097.485.226 7.238.773 6.754.551 19.813 1.528 32.977 1.395 13.168-.133 26.441-1.375 40.027-3.363 13.582-1.993 27.477-4.735 41.063-8.852 13.582-4.113 26.855-9.602 41-17.109s29.156-17.039 42.172-25.938c13.011-8.894 24.023-17.152 32.847-24.539 8.825-7.383 15.457-13.891 18.899-17.27 3.441-3.374 3.691-3.624 3.773-3.976.078-.348-.008-.801-1.699-7.063-1.687-6.257-4.977-18.32-9.629-30.113-4.648-11.789-10.656-23.301-17.851-35.066-7.196-11.762-15.582-23.778-25.157-35.106-9.574-11.324-20.336-21.961-32.101-32.351-11.762-10.387-24.528-20.524-36.231-29.098-11.703-8.57-22.34-15.582-31.351-20.586-9.008-5.008-16.395-8.012-21.657-9.676-5.265-1.66-8.41-1.984-12.628-1.925-4.215.058-9.504.5-17.469 1.75s-18.606 3.308-28.75 5.753c-10.145 2.446-19.789 5.278-29.567 8.375-9.781 3.098-19.691 6.461-28.828 10.086-9.136 3.629-17.5 7.524-23.527 10.653-6.031 3.133-9.727 5.5-11.574 6.683-1.848 1.184-1.848 1.184-1.973 1.262m0 0"/><path fill="#fff" d="M179.23 210.75c-2.925.535-8.535 1.574-12.964 2.867-4.43 1.297-7.684 2.844-9.641 3.785s-2.621 1.274-3.187 1.793c-.563.52-1.028 1.227-2.754 4.434-1.727 3.211-4.711 8.918-6.36 15.91-1.648 6.988-1.957 15.262-1.847 23.293.109 8.031.64 15.82 1.703 22.391 1.062 6.57 2.656 11.925 4.336 16.328 1.683 4.402 3.453 7.855 4.777 10.043 1.328 2.191 2.215 3.121 2.711 3.64.5.52.609.629.609.52s-.109-.442-.742-2.711c-.629-2.266-1.781-6.469-2.687-11.293a104.5 104.5 0 0 1-1.746-16.152c-.18-5.883.132-12.211 1.128-19.004.993-6.793 2.676-14.047 4.801-20.418 2.121-6.375 4.688-11.86 7.52-16.574 2.832-4.711 5.929-8.649 8.84-11.692 2.91-3.039 5.628-5.183 7.082-6.328 1.453-1.144 1.644-1.289 1.617-1.344-.031-.058-.27-.023-3.196.512m0 0"/><path fill="#8c8c8c" d="M375.199 238.867c-2.578-.32-7.738-.953-11.511-1.09-3.77-.132-6.157.231-8.598 1.137-2.438.906-4.934 2.348-7.41 4.328-2.473 1.977-4.926 4.485-7.231 6.746-2.308 2.258-4.465 4.266-7.187 5.813s-6.008 2.629-9.114 3.191c-3.101.563-6.023.606-9.132.18-3.106-.43-6.407-1.324-8.434-2.426-2.027-1.101-2.789-2.41-2.969-4.375-.179-1.961.219-4.578 1.496-7.191 1.278-2.614 3.438-5.219 5.95-7.766 2.515-2.547 5.379-5.035 7.929-8.105 2.555-3.071 4.801-6.723 6.95-9.125 2.148-2.399 4.203-3.547 7.632-3.672 3.434-.125 8.239.777 12.625 2.019 4.383 1.246 8.348 2.828 11.598 4.516 3.25 1.687 5.789 3.476 7.953 4.988s3.953 2.75 5.449 4.11c1.496 1.359 2.7 2.839 3.754 4.023 1.055 1.184 1.961 2.07 2.43 2.531.465.461.496.5.488.508-.004.012-.047-.008-.066-.016-.02-.007-.02-.007-2.602-.324m0 0"/><path fill="#1e2629" d="M376.84 236.293c-1.41-2.348-4.227-7.035-7.824-11.398-3.598-4.364-7.977-8.399-12.895-12.086-4.922-3.688-10.387-7.032-15.371-9.657s-9.484-4.531-12.551-5.765c-3.066-1.239-4.695-1.809-6.558-1.809-1.864 0-3.957.57-7.391 1.703-3.434 1.137-8.207 2.836-12.23 4.516-4.024 1.68-7.293 3.34-10.161 4.683-2.867 1.344-5.332 2.379-8.714 2.911-3.383.535-7.68.566-11.672.14-3.993-.429-7.68-1.316-11.625-2.457-3.95-1.14-8.153-2.531-11.547-3.703s-5.977-2.125-7.809-2.883c-1.836-.758-2.918-1.316-3.519-1.636-.602-.321-.723-.399-.782-.36-.054.039-.046.196.247 1.949.292 1.754.867 5.106 2.445 8.426 1.574 3.324 4.152 6.617 7.094 9.688 2.941 3.07 6.242 5.914 9.246 8.179s5.703 3.954 8.785 5.45c3.082 1.492 6.547 2.793 9.351 3.347 2.809.551 4.961.364 6.094.262s1.25-.113 1.317-.031c.066.086.078.258.441 1.535.359 1.277 1.07 3.656 2.184 5.711 1.113 2.051 2.636 3.777 4.214 5.324 1.575 1.547 3.207 2.914 5.188 4.148 1.98 1.235 4.305 2.336 6.871 3.028 2.57.687 5.379.965 8.059.961a34 34 0 0 0 7.793-.887c2.558-.594 5.121-1.5 7.644-3.023 2.524-1.524 5.012-3.668 7.074-5.918 2.059-2.25 3.692-4.606 4.934-7.25 1.238-2.645 2.082-5.579 2.32-8.219.235-2.641-.137-4.988-.328-6.231-.187-1.238-.195-1.371-.109-1.421s.261-.016 1.738.16c1.477.175 4.246.488 7.262 1.148 3.015.656 6.269 1.652 9.265 2.731a106 106 0 0 1 8.254 3.379 110 110 0 0 1 7.25 3.597c2.395 1.301 4.86 2.754 6.133 3.508 1.277.754 1.359.805 1.375.789.016-.02-.035-.105-.059-.152-.027-.043-.027-.043-1.433-2.387m0 0"/><path fill="#cc7a00" d="M297.289 225.629c0 5.953 5.18 10.777 11.57 10.777s11.571-4.824 11.571-10.777c0-5.949-5.18-10.774-11.571-10.774-6.39 0-11.57 4.825-11.57 10.774m0 0"/><path fill="#4d4d4d" d="M299.863 225.41c0 3.285 2.86 5.945 6.383 5.945s6.383-2.66 6.383-5.945c0-3.281-2.859-5.941-6.383-5.941s-6.383 2.66-6.383 5.941m0 0"/><path fill="#8c8c8c" d="M308.82 150.305c-.027-.008-.078-.024-.078-.016s.051.039 9.34 7.203 27.816 21.457 44.215 36.738c16.394 15.282 30.664 31.551 42.363 47.571 11.703 16.019 20.84 31.789 27.223 48.808 6.383 17.024 10.012 35.293 11.828 44.442 1.816 9.148 1.82 9.168 1.82 9.199 0 .027-.008.066-3.719 4.523-3.71 4.461-11.124 13.344-20.144 22.207-9.016 8.868-19.637 17.715-30.965 26.301s-23.363 16.903-35.664 23.629-24.867 11.86-35.465 15.551c-10.597 3.695-19.222 5.953-27.965 7.566-8.738 1.618-17.586 2.59-26.636 3.364-9.047.777-18.297 1.351-24.618 1.582-6.32.234-9.714.121-11.464.062-1.754-.055-1.864-.058-1.868-.051-.007.012.09.036 2.766.309 2.672.273 7.926.801 13.477 1.187 5.55.387 11.402.637 17.015.747 5.617.109 11 .078 17.617-.313s14.469-1.141 24.344-2.504c9.871-1.359 21.758-3.332 31.832-5.566 10.078-2.239 18.336-4.742 25.938-7.496 7.605-2.754 14.55-5.754 22.433-9.731 7.887-3.972 16.711-8.914 26.325-14.73 9.617-5.813 20.023-12.496 29.453-19.047s17.879-12.965 25.027-18.895c7.148-5.925 12.992-11.363 16.719-14.918 3.726-3.558 5.336-5.23 6.285-6.234.945-1 1.226-1.328 1.32-1.711s0-.82-1.437-6.227c-1.442-5.406-4.227-15.777-7.965-26.187-3.738-10.414-8.43-20.863-14.406-31.563s-13.235-21.652-22.746-33.543c-9.512-11.886-21.278-24.714-31.883-35.101-10.61-10.391-20.055-18.336-30.602-26.504-10.543-8.164-22.183-16.551-32.351-23.027s-18.868-11.043-24.844-13.664c-5.977-2.618-9.235-3.286-10.863-3.621-1.633-.333-1.633-.333-1.657-.34m0 0"/><path fill="#fff" d="M445.535 344.223c0-.035.004-.094-.488-4.34-.492-4.242-1.481-12.664-2.793-20.254-1.316-7.586-2.961-14.34-5.172-21.219-2.211-6.883-4.988-13.89-7.578-19.277-2.59-5.383-4.996-9.141-6.832-11.684s-3.106-3.871-3.758-4.551c-.656-.675-.691-.699-.703-.687s0 .059.91 2.32c.914 2.266 2.727 6.75 4.602 11.168s3.816 8.77 5.531 13.117c1.719 4.348 3.215 8.688 4.535 12.743a282 282 0 0 1 3.688 12.179c1.214 4.356 2.496 9.293 3.835 14.461a4895 4895 0 0 0 3.458 13.274c.71 2.715.738 2.746.75 2.765.015.012.015.012.015-.015m0 0"/><path fill="#fff" d="M450.117 315.766c-.008 0-.023-.004-.48-.028a30 30 0 0 0-2.492-.031c-1.145.035-2.54.148-3.801.316a28 28 0 0 0-3.836.801 49 49 0 0 0-4.781 1.594 34 34 0 0 0-3.856 1.836 44 44 0 0 0-2.195 1.293c-.395.25-.406.262-.403.262.004.003.024 0 .848-.164.824-.165 2.449-.485 4.141-.864 1.691-.383 3.449-.824 5.218-1.285 1.77-.465 3.551-.949 5.086-1.379 1.536-.429 2.829-.801 3.872-1.179a23 23 0 0 0 2.242-.946c.406-.195.425-.211.433-.215.012-.007.012-.007.004-.011m0 0"/><path fill="#1e2629" d="M323.938 223.406c-3.672-.66-11.016-1.988-17.774.285s-12.93 8.153-16.605 9.676c-3.672 1.528-4.844-1.297-5.032-4.121-.191-2.828.606-5.66 2.11-8.207 1.508-2.543 3.718-4.801 7.258-6.215 3.539-1.418 8.406-1.992 12.589-2.144 4.18-.157 7.676.109 11.129.925 3.449.821 6.856 2.192 9.114 3.743 2.257 1.547 3.363 3.273 3.918 4.488.55 1.219.55 1.926.398 2.301-.156.379-.465.422-1.063.355-.597-.066-1.484-.242-1.925-.332s-.442-.09-4.117-.754m0 0"/><path fill="#fff" d="M305.934 224.43c0 2.011 1.75 3.64 3.91 3.64s3.91-1.629 3.91-3.64-1.75-3.645-3.91-3.645-3.91 1.633-3.91 3.645m0 0"/></symbol></svg>